<svg width="774" height="155" viewBox="0 0 774 155" fill="none" xmlns="http://www.w3.org/2000/svg">
<path d="M0.673828 152.308V2.77637H51.9902V22.5723H23.4434V62.334H49.9512V82.2148H23.4434V152.308H0.673828Z" fill="white"/>
<path d="M102.763 152.308V2.77637H152.89V22.4023H125.532V65.9023H151.53V85.1035H125.532V132.682H153.909V152.308H102.763Z" fill="white"/>
<path d="M232.804 154.007C226.574 154.007 221.363 153.044 217.171 151.118C213.037 149.136 209.751 146.275 207.316 142.537C204.937 138.742 203.238 134.154 202.218 128.773C201.199 123.336 200.689 117.162 200.689 110.252V96.9131H222.269V111.951C222.269 119.994 222.949 125.771 224.308 129.283C225.667 132.795 228.358 134.551 232.379 134.551C235.098 134.551 237.137 133.928 238.496 132.682C239.913 131.379 240.847 129.34 241.3 126.564C241.81 123.732 242.065 120.051 242.065 115.52C242.065 109.912 240.875 104.786 238.496 100.142C236.174 95.4971 232.634 90.6826 227.876 85.6982L216.831 74.3135C213.773 71.1416 210.997 67.7715 208.505 64.2031C206.07 60.6348 204.116 56.6699 202.643 52.3086C201.227 47.8906 200.519 42.9629 200.519 37.5254C200.519 29.6523 201.482 22.9971 203.408 17.5596C205.333 12.1221 208.59 8.01562 213.178 5.24023C217.766 2.4082 224.053 0.992188 232.039 0.992188C238.043 0.992188 242.971 1.92676 246.823 3.7959C250.731 5.6084 253.761 8.29883 255.913 11.8672C258.122 15.3789 259.68 19.6836 260.586 24.7812C261.493 29.8223 261.946 35.5996 261.946 42.1133V51.374H240.96V40.6689C240.96 36.1377 240.705 32.3711 240.196 29.3691C239.743 26.3672 238.865 24.1299 237.562 22.6572C236.259 21.1279 234.362 20.3633 231.87 20.3633C229.491 20.3633 227.565 20.9014 226.092 21.9775C224.62 22.9971 223.543 24.6113 222.864 26.8203C222.241 28.9727 221.929 31.7764 221.929 35.2314C221.929 38.3467 222.326 41.0371 223.119 43.3027C223.912 45.5684 225.129 47.749 226.772 49.8447C228.414 51.9404 230.454 54.291 232.889 56.8965L245.208 70.2354C251.099 76.5791 255.687 83.1777 258.972 90.0312C262.257 96.8848 263.9 104.531 263.9 112.971C263.9 121.92 262.937 129.453 261.011 135.57C259.085 141.631 255.857 146.219 251.326 149.334C246.794 152.449 240.621 154.007 232.804 154.007Z" fill="white"/>
<path d="M322.574 152.308V22.4873H305.072V2.77637H362.081V22.4873H345.258V152.308H322.574Z" fill="white"/>
<path d="M406.906 152.308V131.407H426.022V152.308H406.906Z" fill="white"/>
<path d="M485.461 152.308V2.77637H519.021C526.61 2.77637 532.699 4.30566 537.287 7.36426C541.875 10.3662 545.188 14.7275 547.228 20.4482C549.323 26.1689 550.371 33.0791 550.371 41.1787L550.456 108.638C550.456 118.437 549.38 126.593 547.228 133.106C545.132 139.563 541.733 144.378 537.032 147.55C532.331 150.722 526.072 152.308 518.256 152.308H485.461ZM508.23 134.636H515.707C518.369 134.636 520.578 134.098 522.334 133.021C524.146 131.945 525.478 130.048 526.327 127.329C527.233 124.554 527.687 120.646 527.687 115.604L527.602 41.7734C527.602 34.127 526.667 28.6328 524.798 25.291C522.929 21.9492 519.644 20.2783 514.942 20.2783H508.23V134.636Z" fill="white"/>
<path d="M605.902 152.308V2.77637H656.029V22.4023H628.671V65.9023H654.669V85.1035H628.671V132.682H657.048V152.308H605.902Z" fill="white"/>
<path d="M723.878 152.308L700.684 2.77637H722.349L732.12 70.3203L738.152 117.898H738.746L743.929 70.3203L752.085 2.77637H773.326L752 152.308H723.878Z" fill="white"/>
</svg>
