<svg width="60" height="99" viewBox="0 0 60 99" fill="none" xmlns="http://www.w3.org/2000/svg">
<path d="M42.2966 65.6386C41.8771 65.1738 41.4588 64.6997 41.0425 64.219L40.1855 63.2164C38.6484 61.3923 37.1394 59.4646 35.6713 57.4513L34.5647 55.9065C34.5015 55.8168 34.4379 55.7275 34.3751 55.6374C32.8678 53.4822 31.4041 51.2308 30 48.9089L29.2889 47.7176C28.7055 46.7285 28.1322 45.7275 27.572 44.7164C23.5662 37.4888 20.2091 29.7937 17.864 22.4625C15.9273 16.4084 14.7441 10.8142 14.3943 6.10059C13.4541 8.18563 12.0606 11.345 10.9512 14.1529C12.074 20.2112 13.4717 26.0121 15.1054 31.396C17.6418 39.7533 20.8778 47.5679 24.7233 54.623C24.7405 54.6544 24.7576 54.6854 24.7747 54.7164L25.4348 55.9065C26.863 58.4441 28.3915 60.9206 29.9996 63.3032L31.049 64.8277C31.1175 64.9255 31.186 65.0238 31.2549 65.1212C32.6897 67.1512 34.2068 69.1397 35.7907 71.0682L36.6212 72.0671C37.4147 73.0089 38.2231 73.9352 39.0459 74.8436C41.8726 77.9638 44.9468 80.9658 48.1824 83.766C49.6934 85.0735 51.2794 86.3705 52.9049 87.627C55.7512 83.8349 58.087 81.3258 60 80.0093C53.936 76.7696 47.9855 71.9394 42.2962 65.6382L42.2966 65.6386Z" fill="#1F58B2"/>
<path d="M24.329 73.6162C23.6412 74.4239 22.942 75.2198 22.233 76.0026C19.3598 79.1742 16.2355 82.2255 12.9469 85.0713C11.4029 86.4074 9.78098 87.7329 8.11914 89.0172C10.2817 92.0029 12.2701 95.0636 13.6094 97.1246C13.8704 97.5258 14.1097 97.8948 14.3237 98.2213C20.1394 92.7074 25.0931 86.7821 29.2465 81.0178C29.2253 80.9881 29.2041 80.9583 29.1829 80.9286C27.5035 78.5626 25.8841 76.1208 24.3294 73.6166L24.329 73.6162Z" fill="#FAD749"/>
<path d="M41.3233 20.9709C42.2162 18.0647 42.9285 15.278 43.4495 12.6605C42.535 11.5796 41.4114 10.6476 40.1026 9.88475C38.7759 9.11172 37.2176 8.48873 35.4702 8.03332C33.6534 7.55955 31.762 7.30025 30.0023 7.15918C28.2422 7.29984 26.3512 7.55955 24.5345 8.03332C22.787 8.48873 21.2287 9.11172 19.902 9.88475C18.5928 10.6476 17.4696 11.5796 16.5547 12.6605C17.0757 15.278 17.7876 18.0647 18.6809 20.9709C20.8104 16.8289 25.2288 14.3867 30.0023 14.3867C34.7758 14.3867 39.1942 16.8289 41.3237 20.9709H41.3233Z" fill="#FAD749"/>
<path d="M32.4274 44.7168C31.8672 45.7275 31.2944 46.7285 30.7109 47.7176C32.1559 50.1353 33.666 52.478 35.2243 54.7172C35.2415 54.6858 35.2586 54.6548 35.2757 54.6234C39.1213 47.5688 42.3573 39.7541 44.8937 31.3964C46.5278 26.0125 47.925 20.2116 49.0479 14.1533C47.9385 11.3454 46.5449 8.18563 45.6047 6.10059C45.2549 10.8142 44.0717 16.4084 42.1351 22.4625C39.7899 29.7937 36.4332 37.4888 32.427 44.7164L32.4274 44.7168Z" fill="#1F58B2"/>
<path d="M20.954 74.8434C21.7768 73.9354 22.5853 73.0087 23.3787 72.0668C21.8343 69.5097 20.3584 66.8897 18.9575 64.2188C18.5412 64.6994 18.1233 65.1732 17.7033 65.638C12.0145 71.9396 6.06393 76.7698 0 80.0095C1.91299 81.3256 4.24879 83.8351 7.09504 87.6272C8.72059 86.3707 10.3066 85.0737 11.8176 83.7662C15.0532 80.966 18.1274 77.964 20.954 74.8438V74.8434Z" fill="#1F58B2"/>
<path d="M37.7676 76.0008C37.0586 75.2184 36.3597 74.4229 35.6723 73.6157L34.841 72.6265C33.1486 70.5896 31.5287 68.4834 29.9994 66.331L28.95 64.827C27.3252 62.4529 25.7779 59.9829 24.3281 57.4506L23.6672 56.2793C23.5135 56.0028 23.3602 55.7256 23.2089 55.4479C19.3071 48.2901 16.0254 40.3662 13.4548 31.8963C12.0567 27.2896 10.8291 22.3795 9.79801 17.2725C9.76702 17.365 9.73726 17.4555 9.70872 17.5436C8.88677 20.0796 8.47171 22.5748 8.40281 25.3962C8.33391 28.2078 8.62379 31.0891 8.94711 33.7841C9.25575 36.3555 10.2905 40.3328 11.7864 44.6957C13.5914 49.9605 16.0112 55.6677 18.784 61.2004C18.9218 61.4756 19.0629 61.7544 19.2064 62.0358L19.8139 63.2153C21.0799 65.6465 22.5419 68.2901 24.2087 71.067L25.1578 72.6261C26.6244 75.0019 28.236 77.4612 29.9994 79.9581L30.7541 81.0157C34.9075 86.7799 39.8612 92.7048 45.6768 98.2192C45.8909 97.8926 46.1302 97.5236 46.3911 97.1224C47.7301 95.0614 49.7189 92.0007 51.8814 89.015C50.22 87.7311 48.5981 86.4056 47.0537 85.0692C43.7651 82.2233 40.6412 79.1724 37.7676 76.0004V76.0008Z" fill="#FAD749"/>
<path d="M16.2942 11.2896C17.1703 10.3857 18.19 9.59269 19.3386 8.92363C20.7525 8.09964 22.4054 7.43792 24.2507 6.95682C25.9264 6.51975 27.8447 6.21397 29.9514 6.04721L29.9995 6.04354L30.0476 6.04721C32.1542 6.21397 34.0721 6.51975 35.7482 6.95682C37.5935 7.43792 39.246 8.09964 40.6604 8.92363C41.8089 9.59269 42.8286 10.3857 43.7048 11.2896C43.7068 11.2786 43.7088 11.2672 43.7105 11.2562C44.0187 9.18009 44.2686 6.8765 44.4696 4.26346C42.9578 2.92412 40.7395 1.82289 38.0302 1.07066C35.5436 0.380397 32.6916 0 29.9995 0C27.3073 0 24.4554 0.380397 21.9687 1.07066C19.2595 1.82289 17.0411 2.92412 15.5293 4.26346C15.7303 6.87691 15.9802 9.18049 16.2885 11.257C16.2905 11.268 16.2921 11.2786 16.2942 11.2896V11.2896Z" fill="#1F58B2"/>
<path d="M36.7923 55.4499C36.641 55.7275 36.4881 56.0044 36.334 56.2808C37.7838 58.29 39.2752 60.2152 40.7948 62.0381C40.9383 61.7564 41.0794 61.4775 41.2172 61.2023C43.99 55.6696 46.4098 49.9625 48.2148 44.6977C49.7107 40.3347 50.7454 36.3575 51.0541 33.786C51.3774 31.091 51.6673 28.2097 51.5984 25.3981C51.5291 22.5767 51.114 20.0815 50.2925 17.5455C50.2639 17.4575 50.2342 17.367 50.2032 17.2744C49.1721 22.3814 47.9445 27.2915 46.5464 31.8983C43.9758 40.3681 40.6941 48.2921 36.7923 55.4499V55.4499Z" fill="#FAD749"/>
</svg>
