<svg width="1076" height="157" viewBox="0 0 1076 157" fill="none" xmlns="http://www.w3.org/2000/svg">
<path fill-rule="evenodd" clip-rule="evenodd" d="M95.2742 45.4847C95.2742 21.4548 111.778 0.5 138.899 0.5V0.515453C166.514 0.515453 180.066 21.2075 180.066 43.0276C180.066 48.313 179.82 50.5253 179.696 51.641L179.695 51.6506H114.374C116.6 65.8213 127.571 72.9763 141.248 72.9763C153.332 72.9763 161.337 67.0576 167.008 59.1764L179.695 72.1109C171.567 82.0937 158.864 90.4695 139.64 90.4695C112.783 90.4695 95.2742 72.4817 95.2742 45.4847ZM138.899 17.7614C127.077 17.7614 118.315 24.53 115.24 36.2436H160.471C159.853 26.3844 152.08 17.7614 138.899 17.7614ZM332.628 2.35449H310.221H291.491H269.532V19.3532H291.491V88.6151H291.615H310.221V19.3532H332.628V2.35449ZM343.199 68.4805C337.343 68.4805 332.707 73.2246 332.707 79.0815C332.707 84.9383 337.343 89.6825 343.199 89.6825C349.056 89.6825 353.893 84.9383 353.893 79.0815C353.893 73.2246 349.041 68.4805 343.199 68.4805ZM231.938 36.7373L222.697 35.1302C211.601 33.1521 206.919 30.3242 206.919 26.0127C206.919 21.0831 213.703 17.7606 223.067 17.7606C233.792 17.7606 241.55 22.3193 247.963 27.9907L262.01 14.6854C253.139 6.18603 239.942 0.514648 223.809 0.514648C203.72 0.514648 187.819 10.1266 187.819 27.0172C187.819 42.1769 199.161 49.8109 218.509 53.0252L230.222 55.0032C242.183 56.9812 245.753 59.9328 245.753 64.1207C245.753 69.2975 239.834 73.2382 227.147 73.2382C214.46 73.2382 205.204 67.5668 199.177 60.551L184.759 73.609C193.505 83.4683 208.294 90.4996 225.926 90.4996C250.574 90.4996 264.868 79.7749 264.868 63.7498C264.868 47.7247 253.649 40.4616 231.969 36.7528L231.938 36.7373ZM19.4838 88.6778H0.105469L25.7424 2.16992L45.0969 2.18538V2.16992H89.4786V19.4777H45.0969V2.21394L19.4838 88.6778ZM86.6352 37.6484H45.0969V54.9562H86.6352V37.6484Z" fill="white"/>
<path d="M417.381 20.6203H379.498V3.40032H436.077V58.0121C436.077 77.323 422.424 91.345 401.637 91.345C376.546 91.345 366.583 76.0931 366.583 59.4881V54.8141H385.032V59.4881C385.032 68.3441 390.321 74.3711 401.514 74.3711C411.354 74.3711 417.381 67.9751 417.381 57.8891V20.6203ZM483.286 91.345C465.697 91.345 450.937 84.334 442.204 74.4941L456.595 61.4561C462.622 68.4671 471.97 74.1251 484.516 74.1251C497.185 74.1251 503.089 70.1891 503.089 65.0231C503.089 60.8411 499.522 57.8891 487.591 55.9211L475.906 53.9531C456.595 50.7551 445.279 43.1292 445.279 28.0002C445.279 11.1493 461.146 1.55533 481.195 1.55533C497.308 1.55533 510.469 7.21331 519.325 15.7003L505.303 28.9842C498.907 23.3262 491.158 18.7753 480.457 18.7753C471.109 18.7753 464.344 22.0963 464.344 27.0162C464.344 31.3212 469.018 34.1502 480.088 36.1182L489.313 37.7172C510.961 41.4072 522.154 48.6642 522.154 64.6541C522.154 80.644 507.886 91.345 483.286 91.345Z" fill="white"/>
<path d="M574.966 53.8301V89.5H556.27V3.40032H574.966V36.6102H583.207L610.021 3.40032H632.284L598.705 44.4822L633.637 89.5H610.513L582.961 53.8301H574.966ZM639.511 3.40032H657.346V16.9303H661.282L667.555 5.12231C672.106 3.03133 678.871 1.92433 683.914 1.92433C688.342 1.92433 692.032 2.29332 695.476 3.40032V23.3262H695.353C691.909 21.8503 686.989 20.7433 681.208 20.7433C670.507 20.7433 658.207 27.1392 658.207 43.7442V89.5H639.511V3.40032ZM738.792 90.853C716.529 90.853 698.817 72.4031 698.817 46.4502C698.817 19.0213 717.759 1.92433 740.514 1.92433C745.926 1.92433 750.969 2.78532 755.151 5.12231L761.424 16.9303H765.36V3.40032H784.055V89.5H765.36V75.8471H761.424L755.151 87.655C751.584 89.623 744.942 90.853 738.792 90.853ZM718.005 46.4502C718.005 60.8411 727.353 73.3871 742.113 73.3871C757.734 73.3871 765.975 60.8411 765.975 46.4502C765.975 32.0592 757.734 19.3903 742.113 19.3903C727.353 19.3903 718.005 32.0592 718.005 46.4502ZM812.076 53.8301V89.5H793.38V3.40032H812.076V36.6102H820.317L847.131 3.40032H869.394L835.815 44.4822L870.747 89.5H847.623L820.071 53.8301H812.076ZM907.805 91.345C881.853 91.345 862.296 73.5101 862.296 46.3272C862.296 19.3903 881.853 1.55533 907.805 1.55533C933.635 1.55533 953.192 19.3903 953.192 46.5732C953.192 73.5101 933.635 91.345 907.805 91.345ZM881.361 46.4502C881.361 61.4561 891.447 73.8791 907.682 73.8791C924.533 73.8791 934.127 61.3331 934.127 46.4502C934.127 31.5672 924.533 19.0213 907.682 19.0213C891.447 19.0213 881.361 31.4442 881.361 46.4502ZM975.536 89.5L950.936 3.40032H970.001L989.189 72.6491H993.617L1000.14 52.3541L986.36 3.40032H1003.7L1010.84 28.9842H1012.19L1019.32 3.40032H1036.67L1022.89 52.3541L1029.41 72.6491H1033.84L1053.03 3.40032H1072.09L1047.49 89.5H1017.97L1011.94 70.1891H1011.08L1005.06 89.5H975.536Z" fill="#D904A0"/>
</svg>
