<svg xmlns="http://www.w3.org/2000/svg" width="390" height="151" viewBox="0 0 390 151" fill="none">
  <path d="M169.597 -8.12773C169.325 -7.54332 169.325 -6.88098 169.558 -6.2576C169.792 -5.67319 169.753 -2.67319 169.481 1.53461C168.935 10.3398 168.857 10.8853 167.922 10.8853C167.532 10.8853 167.104 11.0411 166.948 11.2749C166.714 11.6255 167.455 13.2229 168.078 13.6515C168.39 13.8853 167.961 18.5606 167.143 23.7424C166.948 24.9112 166.675 27.093 166.519 28.6125C166.247 31.5736 165.779 32.9762 165.429 31.9242C165.351 31.6125 165.156 30.6775 165 29.8593C164.766 28.2619 163.714 27.8333 163.364 29.1969C163.247 29.6255 163.013 29.8593 162.779 29.7424C162.234 29.3917 161.299 30.3658 161.299 31.3788C161.299 32.3528 160.558 34.3008 160.013 34.6904C159.857 34.8073 159.779 36.7164 159.818 38.9762C159.935 42.9502 159.935 43.0281 161.026 43.5346C162.312 44.158 162.351 44.5476 161.221 45.3658C160.442 45.9112 160.325 46.3008 160.286 48.9891C160.247 58.106 160.013 64.6515 159.74 64.6515C159.234 64.6515 158.455 62.3528 158.649 61.3398C158.766 60.7943 158.688 60.3658 158.493 60.3658C158.299 60.3658 158.221 59.8982 158.338 59.2749C158.455 58.6904 158.416 57.5995 158.221 56.8593C157.909 55.6904 157.87 55.8463 157.831 58.2619C157.792 61.5736 157.013 64.3788 155.649 66.2099C154.675 67.4567 152.766 70.6515 150.857 74.0411C150.429 74.8203 149.844 75.8723 149.532 76.3788C148.247 78.6775 146.766 80.2749 146.338 79.8463C145.753 79.2619 145.948 65.5865 146.571 64.3398C146.922 63.6775 146.922 63.3658 146.571 63.0151C146.299 62.7424 146.104 61.5346 146.104 60.2878C146.104 59.0411 145.948 57.7164 145.753 57.3268C144.506 54.8723 143.766 52.9242 143.532 51.5216C143.416 50.5865 143.143 49.9242 142.987 50.0411C142.481 50.3528 139.909 47.3138 139.325 45.6385C138.896 44.3917 138.818 43.4956 139.052 42.132C139.286 40.9632 139.286 40.0671 139.013 39.5606C138.662 38.8982 138.779 37.0281 139.325 34.8073C139.481 34.2229 139.169 33.5216 138.312 32.5476C137.61 31.7684 136.831 30.4047 136.558 29.4697L136.013 27.8333V29.1969C135.974 30.132 135.623 30.8723 134.727 31.8073L133.442 33.132V39.7164V46.3008L132 47.7814C129.273 50.5865 128.961 51.0151 128.961 51.7943C128.961 52.2229 128.805 52.8853 128.61 53.2749C126.506 57.4047 126.273 58.2229 126.273 61.5346C126.312 63.3658 126.351 74.5865 126.39 86.4697L126.429 108.093H123.701H120.974L120.662 106.34C120.039 102.989 119.922 98.9372 120.429 98.3138C120.818 97.8463 120.74 97.4956 119.961 96.4827C119.182 95.4307 118.987 94.6904 118.909 91.6515C118.792 89.0801 118.909 87.7554 119.338 86.9372C119.961 85.6125 119.493 84.5995 118.325 84.8333C116.844 85.145 116.221 83.9372 116.143 80.7424C116.104 79.106 115.948 77.5476 115.792 77.3528C115.675 77.119 115.519 76.7294 115.519 76.4567C115.519 76.2229 115.091 75.5216 114.584 74.9762C113.922 74.1969 113.61 73.2619 113.494 71.5086C113.377 70.184 113.026 68.8203 112.675 68.4307C112.169 67.8463 112.169 67.6125 112.597 66.7943C113.065 65.9372 113.026 65.7814 112.091 65.0411C111.156 64.3008 111.078 64.0281 111.117 61.106C111.156 57.5216 110.494 56.119 110.143 59.0801C110.026 60.093 109.987 61.6904 110.065 62.5865C110.182 63.6775 110.065 64.3398 109.675 64.6515C109.325 64.9632 109.091 65.8203 109.091 66.8333C109.091 67.7294 108.935 68.6255 108.701 68.7424C108.506 68.8593 108.312 69.8333 108.312 70.9242C108.312 71.9762 108.156 72.8333 107.922 72.8333C107.727 72.8333 107.532 73.0671 107.532 73.3788C107.532 73.6904 107.104 74.4697 106.558 75.093C105.74 76.0671 105.506 76.8852 105.195 80.0411C104.844 83.8593 104.143 85.4956 103.052 85.0671C102.156 84.7164 101.961 85.7294 102.039 90.6385C102.117 94.3398 102 95.5476 101.571 95.9762C101.026 96.5216 100.519 103.535 100.519 110.353C100.519 112.262 100.403 113.002 100.052 112.885C99.5454 112.69 97.7922 114.522 97.7922 115.223C97.7922 115.963 96.3117 116.158 88.1299 116.353L79.8312 116.587L78.1558 114.794C77.2208 113.781 75.9351 111.911 75.2338 110.626L73.9481 108.249L65.1818 108.327C60.3506 108.327 56.2597 108.21 56.1039 108.015C55.3247 107.158 54.5455 103.028 54.5455 99.5606C54.5455 96.4827 54.4286 95.8203 53.961 95.8203C53.6493 95.8203 53.3766 95.9762 53.3766 96.2099C53.3766 96.9502 52.2857 96.132 51.8961 95.119C51.6623 94.5346 51.3896 92.6645 51.2338 90.9502C51.1169 89.2359 50.8442 87.6775 50.6493 87.4437C50.4935 87.2489 50.2208 86.3917 50.0649 85.5736C49.9091 84.7943 49.6364 84.0151 49.4416 83.9372C49.0519 83.6645 48.3117 84.9891 48.3117 86.0021C48.3117 86.4307 48.039 87.2878 47.7273 87.8723C47.4156 88.5346 47.1429 90.0151 47.1429 91.3788C47.1429 94.145 46.4416 95.7424 44.9221 96.6385C43.8701 97.2229 43.8312 97.3398 43.8312 100.807C43.8312 103.106 43.6753 104.509 43.3636 104.82C43.0909 105.093 42.8571 105.911 42.8571 106.613C42.8571 108.327 41.6104 108.833 38.1818 108.522L35.6493 108.288L33.1169 110.431C29.5325 113.47 28.4416 114.132 26.961 114.132C25.4416 114.132 25.2857 114.483 25.2078 117.716L25.1299 120.171L22.7143 122.08C20.2987 123.989 20.2597 124.067 20.2597 125.898C20.2597 127.223 20.1039 127.768 19.7143 127.768C19.4026 127.768 19.0519 128.041 18.9351 128.392C18.8182 128.703 18.5065 128.859 18.2727 128.703C18 128.548 17.8831 127.457 18 125.859L18.1169 123.288H13.8312C10.2078 123.288 9.58442 123.366 9.7013 123.872C10.0519 125.197 10.2078 128.587 9.97403 129.522C9.62338 130.846 8.2987 130.846 7.94805 129.483C7.79221 128.937 7.79221 127.262 7.87013 125.781L8.06493 123.093H4.79221H1.55844L1.83117 124.184C2.14286 125.275 2.14286 125.898 2.02597 129.21C1.94805 131.041 1.83117 131.275 0.974026 131.509L0 131.742V143.781V155.82H195H390V126.093V96.3268L385.87 93.5216C383.493 91.8853 381.429 90.7554 381 90.8333C380.571 90.9112 377.805 92.6255 374.805 94.6515C370.87 97.3398 369.468 98.5086 369.623 98.9372C369.74 99.2489 370.013 100.574 370.169 101.859C370.325 103.145 370.558 104.937 370.714 105.833C371.221 108.833 371.221 108.833 361.325 108.561C356.571 108.405 352.169 108.093 351.584 107.898C350.805 107.587 350.416 107.587 350.338 107.859C350.26 108.093 349.442 108.288 348.506 108.288C346.948 108.288 346.792 108.405 346.169 109.729C345.273 111.677 343.597 114.054 342.273 115.379C340.753 116.898 339.468 116.781 337.87 115.028C336.74 113.742 336.584 113.314 336.662 111.6C336.779 108.327 336.662 107.976 335.766 107.703C335.26 107.587 334.519 107.275 334.091 107.08C333.545 106.846 332.727 106.924 331.364 107.431L329.416 108.132V110.898C329.416 113.431 329.299 113.781 328.325 114.833L327.234 115.963L324.351 114.794C321.507 113.664 321.429 113.587 320.182 111.132C318.117 107.041 318.234 107.119 312.74 107.08C305.922 107.041 304.987 106.846 303.584 105.054C302.922 104.236 302.299 103.768 302.143 104.002C302.026 104.197 301.714 104.392 301.48 104.392C301.208 104.392 301.169 103.651 301.325 102.132C301.48 100.885 301.48 98.8203 301.325 97.5736C301.091 95.5865 300.974 95.3917 300.545 96.0151C300.078 96.6385 300 96.5995 299.805 95.5865C299.416 93.9112 299.299 93.5995 299.26 94.3788C299.221 95.4307 298.247 94.9242 298.208 93.8333C298.208 93.3268 298.052 92.5865 297.896 92.1969C297.701 91.8463 297.662 90.9502 297.779 90.2489C297.974 88.9632 297.507 87.6385 296.649 87.171C296.338 86.9762 296.26 86.3528 296.377 85.3398C296.61 83.6645 296.299 81.7943 295.792 81.7943C295.325 81.7943 294.468 84.4437 294.779 84.9502C294.935 85.2619 295.13 85.2229 295.403 84.8723C295.597 84.5216 295.636 84.7554 295.48 85.4956C295.325 86.119 294.896 87.132 294.507 87.7164C294.039 88.3398 293.766 89.3917 293.766 90.4827C293.766 91.4567 293.571 92.3917 293.377 92.5086C293.143 92.6255 293.104 93.171 293.221 93.6775C293.571 95.0411 292.948 95.7814 292.442 94.6125C292.052 93.7164 292.052 93.7554 291.896 95.158C291.818 96.2489 291.623 96.5995 291.234 96.4437C290.961 96.3658 290.61 96.5216 290.493 96.8333C290.104 97.8463 290.221 101.664 290.649 101.664C290.883 101.664 291.039 102.444 291.039 103.34C291.039 104.781 290.883 105.132 290.065 105.483C288.74 106.106 286.169 106.067 285.195 105.483C284.61 105.093 284.065 105.093 282.662 105.483C280.792 105.989 273.974 106.067 272.338 105.6L271.364 105.327L271.325 99.8333V94.3398L269.727 92.2359C268.831 91.106 267.818 89.3917 267.468 88.4177C266.338 85.3788 266.221 85.145 265.325 83.158C264.779 81.9502 264.351 81.4437 264.234 81.7943C263.727 83.4307 262.013 87.6775 261.156 89.5086C260.221 91.4956 257.883 94.2619 257.143 94.2619C256.442 94.2619 255.584 92.5086 255.584 91.0671C255.584 89.9372 255.39 89.5865 254.766 89.3917C253.987 89.119 253.948 88.9242 254.143 86.119C254.299 84.4827 254.493 82.3008 254.649 81.2099C254.766 80.158 254.649 78.2489 254.377 76.9242C253.909 74.4697 253.247 73.2229 253.247 74.6645C253.247 75.7164 252.701 76.106 252.156 75.4437C251.649 74.8593 251.688 75.0151 251.455 68.4307C251.26 63.7554 251.221 63.4827 250.442 63.4827C249.818 63.4827 249.701 63.3268 249.896 62.5476C250.169 61.4956 249.078 59.2749 247.519 57.6775C246.857 56.9762 246.623 56.8982 246.623 57.3658C246.623 57.6775 246.468 58.0281 246.273 58.106C245.455 58.4177 243.974 61.4567 244.169 62.4307C244.325 63.132 244.208 63.4827 243.896 63.4827C242.883 63.4827 242.455 64.6904 242.805 66.4827C243.195 68.2749 243.039 71.158 242.416 73.9242C241.987 75.9112 241.636 76.3398 241.169 75.5606C240.974 75.2489 240.701 75.132 240.506 75.2878C239.922 75.8723 238.87 80.4307 239.221 80.8203C239.416 81.0541 239.688 83.0411 239.844 85.2619C240.078 88.7684 240.039 89.3138 239.532 89.119C238.909 88.8852 237.896 90.171 238.247 90.7164C238.481 91.145 237.39 96.8723 236.844 98.0021C236.532 98.6255 236.571 99.132 237.117 100.145C237.74 101.275 237.857 102.6 237.974 108.483C238.13 116.664 237.935 117.405 235.792 116.314C234.312 115.574 233.766 114.638 233.766 112.885C233.727 111.6 233.026 110.236 232.325 110.236C232.13 110.236 231.234 109.69 230.299 109.028L228.623 107.781L224.883 108.015C222.818 108.171 220.909 108.132 220.675 107.976C220.442 107.82 219.935 106.379 219.584 104.781C218.766 101.236 217.792 99.4047 216.039 98.1969C214.831 97.3788 214.714 97.106 214.753 95.5476C214.792 93.4437 214.091 92.5476 213.273 93.6385C212.922 94.145 212.805 94.8853 212.961 95.7814C213.156 97.0671 213.039 97.2619 211.597 98.3528C210 99.5606 208.714 101.431 208.286 103.301C208.169 103.924 207.779 104.392 207.506 104.392C206.961 104.392 205.519 105.911 205.247 106.807C205.169 107.041 203.883 107.275 202.403 107.353C200.883 107.431 197.844 107.587 195.584 107.703C189.701 108.015 187.597 107.548 185.727 105.483C184.364 103.924 184.208 103.846 183.74 104.47C183.039 105.444 182.727 105.327 182.727 104.236C182.727 103.69 182.532 102.794 182.338 102.21C181.519 100.067 181.091 94.6515 180.779 83.3528C180.623 77.0411 180.312 68.7034 180.039 64.8463C179.766 60.9891 179.61 55.184 179.688 51.9112C179.883 46.106 179.844 45.9891 178.987 45.5216C177.623 44.8203 177.545 44.0801 178.792 43.4177C180.234 42.6775 180.39 42.2099 180.39 38.5865C180.39 36.5606 180.195 35.3528 179.805 34.7684C179.493 34.3008 178.909 32.3917 178.558 30.5216C177.974 27.5216 177.857 27.2489 177.623 28.3398C177.234 30.171 177 30.2099 176.688 28.5346C176.532 27.7164 176.338 26.8982 176.221 26.7034C175.87 26.158 174.974 28.106 174.935 29.3917C174.935 30.8333 174.545 32.3138 174.195 32.3138C174.039 32.3138 173.416 28.145 172.831 23.0801C171.818 14.6645 171.779 13.8073 172.364 13.4177C173.26 12.7554 173.143 11.2359 172.208 11.0021C171.779 10.8853 171.351 10.4177 171.273 9.95018C170.844 7.80733 170.182 -4.46539 170.377 -6.14072C170.688 -8.3615 170.221 -9.49138 169.597 -8.12773ZM135.974 43.6125C135.974 44.0411 135.818 44.3917 135.584 44.3917C135.39 44.3917 135.195 44.0411 135.195 43.6125C135.195 43.184 135.39 42.8333 135.584 42.8333C135.818 42.8333 135.974 43.184 135.974 43.6125ZM137.532 43.6125C137.532 44.0411 137.377 44.3917 137.143 44.3917C136.948 44.3917 136.753 44.0411 136.753 43.6125C136.753 43.184 136.948 42.8333 137.143 42.8333C137.377 42.8333 137.532 43.184 137.532 43.6125ZM247.987 70.106C247.987 72.5606 247.948 72.6385 247.013 72.6385C246.117 72.6385 246.039 72.4827 245.922 70.5346C245.766 67.8852 246 67.3008 247.091 67.4567C247.909 67.5736 247.987 67.7684 247.987 70.106ZM110.26 71.4697C110.26 72.093 110.026 72.4437 109.675 72.4437C109.091 72.4437 108.857 71.2359 109.364 70.7684C109.87 70.2229 110.26 70.5346 110.26 71.4697ZM112.208 71.4697C112.208 72.093 111.974 72.4437 111.623 72.4437C111.273 72.4437 111.039 72.093 111.039 71.4697C111.039 70.8463 111.273 70.4956 111.623 70.4956C111.974 70.4956 112.208 70.8463 112.208 71.4697ZM248.805 83.6645C249.039 83.8203 249.351 85.3008 249.468 86.9372C249.701 90.3268 249.234 91.145 247.169 91.145C245.143 91.145 244.286 89.8982 244.286 87.0541C244.286 84.5606 245.143 83.3528 246.974 83.3528C247.753 83.3528 248.571 83.5086 248.805 83.6645ZM295.325 90.5606C295.325 91.106 295.169 91.5346 294.935 91.5346C294.507 91.5346 294.39 90.2489 294.818 89.8593C295.247 89.4307 295.325 89.5476 295.325 90.5606ZM296.961 90.0541C297.195 90.7164 296.922 91.5346 296.455 91.5346C296.26 91.5346 296.104 91.106 296.104 90.5606C296.104 89.5476 296.649 89.2359 296.961 90.0541ZM257.455 102.872C257.416 105.015 257.026 105.989 256.48 105.444C256.169 105.093 256.792 100.496 257.182 100.496C257.377 100.496 257.493 101.548 257.455 102.872Z" fill="#D904A0" fill-opacity="0.3"/>
</svg>