<svg xmlns="http://www.w3.org/2000/svg" width="390" height="104" viewBox="0 0 390 104" fill="none">
  <path d="M377.735 0.554268C377.678 1.08524 377.565 2.01444 377.509 2.54542C377.396 4.00559 375.081 4.2047 374.742 2.74453C374.516 1.68259 374.46 1.61621 374.403 2.67816C374.347 3.47462 373.895 3.87285 373.048 3.87285C372.258 3.87285 370.846 4.9348 369.548 6.59409L367.289 9.24895L366.95 6.39497L366.612 3.54099L366.555 6.92595C366.499 9.04984 366.103 10.6428 365.595 11.1737C364.861 11.9038 364.748 15.2224 364.748 33.4746V54.979H362.207H359.667V40.7755V26.572L357.578 24.7136C356.392 23.5852 354.472 22.656 353.173 22.4569L350.915 22.1251V18.6074C350.915 16.749 350.746 15.156 350.52 15.156C350.237 15.156 350.068 16.8153 350.068 18.8065V22.4569H348.148C346.285 22.4569 346.172 22.3242 345.946 19.9348L345.72 17.479L345.664 19.9348C345.551 22.3905 345.495 22.4569 343.405 22.4569C342.22 22.4569 340.752 22.9215 340.074 23.4525C339.001 24.3153 338.832 24.3153 338.55 23.4525C338.38 22.9215 337.703 22.4569 337.082 22.4569C336.178 22.4569 335.952 22.8551 335.952 24.7136C335.952 25.9746 335.727 27.2357 335.388 27.4348C335.049 27.7003 334.823 35.5985 334.823 49.072V70.2445H332.565H330.306V42.0366V13.8286H328.895C327.709 13.8286 327.483 14.1605 327.483 15.8198C327.483 17.3463 327.257 17.8109 326.354 17.8109C325.62 17.8109 325.224 17.3463 325.224 16.5498C325.224 15.687 324.773 15.156 323.982 15.0233C323.079 14.8905 322.571 14.2268 322.345 12.833L321.95 10.8419L321.893 13.1649C321.78 15.0897 321.667 15.2888 321.159 14.4259C320.595 13.4967 320.425 13.4967 319.465 14.6251C318.901 15.2888 318.449 16.2844 318.449 16.8153C318.449 17.3463 317.997 17.8109 317.489 17.8109C316.924 17.8773 315.739 19.1383 314.779 20.6649L313.085 23.4525L312.916 20.5985C312.69 16.6162 311.673 17.8109 311.673 22.1251C311.673 24.1162 311.448 25.9082 311.109 26.1074C310.77 26.3728 310.544 38.5852 310.544 60.687C310.544 82.9879 310.375 94.8021 309.98 94.8021C309.697 94.8021 309.359 93.2091 309.302 91.2844C309.02 83.3861 308.907 81.7268 308.342 78.6737C307.382 73.6295 307.269 52.1251 308.173 50.864C308.681 50.1339 308.737 49.6693 308.286 49.3375C308.003 49.1383 307.721 48.0764 307.721 47.0144C307.721 45.9525 307.495 44.8906 307.156 44.6914C306.874 44.4923 306.592 43.6959 306.592 42.9658C306.592 40.8419 305.519 41.572 305.35 43.8286L305.18 46.0189L290.105 46.218L274.973 46.3507L274.578 43.5631C274.239 40.7755 274.182 40.7755 273.787 42.6339C273.505 43.6959 273.448 44.8242 273.618 45.156C273.787 45.4215 272.545 45.687 270.795 45.687C267.802 45.687 267.689 45.6206 267.35 43.6295C266.899 41.3065 266.503 41.4392 266.278 44.0941C266.052 46.6826 265.261 46.749 263.793 44.3596C262.607 42.5012 262.269 40.2445 262.043 32.2136C261.986 31.218 261.365 31.0852 257.187 31.0852H252.388V29.2932C252.388 25.1118 251.88 28.6959 251.541 35.333C251.259 41.1737 250.976 42.8994 249.96 44.4259C248.774 46.3507 247.193 47.0144 247.363 45.4879C247.419 45.0897 247.363 43.9613 247.306 43.0321C247.193 41.5056 247.137 41.5056 246.629 43.4967C246.007 45.6206 245.895 45.687 242.959 45.687C241.265 45.687 240.022 45.4215 240.192 45.156C240.361 44.8242 240.305 43.6959 240.022 42.6339C239.627 40.7755 239.571 40.7755 239.232 43.5631L238.837 46.3507L223.705 46.218L208.629 46.0189L208.46 44.0277C208.178 41.3729 207.218 40.1782 207.218 42.5012C207.218 43.4967 206.992 44.4923 206.653 44.6914C206.371 44.8906 206.088 46.1516 206.088 47.4127C206.088 48.6737 205.806 49.6693 205.467 49.6693C205.016 49.6693 205.016 49.9348 205.411 50.5321C205.75 50.9967 206.201 53.187 206.371 55.3773C206.71 58.8286 206.653 59.1605 205.919 58.0985C205.242 57.1693 204.112 56.9702 198.297 56.9702C194.344 56.9702 191.352 57.2357 191.126 57.6339C190.956 58.0321 189.94 58.2976 188.924 58.2976C187.117 58.2976 187.004 58.1649 186.665 55.2445C186.496 53.5189 186.327 50.864 186.327 49.2047C186.327 47.6118 186.101 45.8198 185.818 45.156C185.536 44.5587 184.633 42.3021 183.786 40.2445C182.939 37.9879 181.301 35.3994 179.777 33.8728C177.575 31.5498 177.293 30.8861 177.293 28.4967C177.293 25.8419 175.994 23.1206 174.752 23.1206C173.453 23.1206 172.211 25.8419 172.211 28.6295C172.211 31.218 171.985 31.749 169.952 33.6737C168.371 35.1339 167.016 37.4569 165.492 41.2401C163.629 45.8861 163.29 47.4127 163.233 51.2622C163.177 57.6339 162.951 58.2976 160.636 58.2976C159.563 58.2976 158.547 57.9658 158.378 57.6339C157.813 56.572 143.98 56.7711 143.923 57.7667C143.923 58.2313 143.81 62.6782 143.641 67.5897C143.528 72.5012 143.133 76.8153 142.85 77.1472C142.116 78.01 141.778 75.5543 141.495 67.2578C141.382 63.2091 141.213 59.8242 141.156 59.6251C141.1 59.4259 141.044 58.7622 141.1 58.0985C141.213 57.3021 140.818 56.9702 139.745 56.9702C138.954 56.9702 133.59 54.0498 127.831 50.5321C117.103 43.895 116.426 43.2976 115.579 38.718C115.41 37.9215 115.297 38.187 115.24 39.5144C115.24 40.7091 114.958 41.7047 114.619 41.7047C114.337 41.7047 114.054 42.2357 114.054 42.833C114.054 44.2932 93.5585 56.9702 91.2435 56.9702C89.9449 56.9702 89.7755 57.1693 90.1143 58.6295C90.3401 59.6914 90.2272 60.2888 89.7755 60.2888C89.3803 60.2888 89.2109 60.7534 89.4367 61.4171C89.9449 62.9436 89.1544 82.8552 88.5898 82.8552C88.3639 82.8552 88.0816 73.7622 87.9687 62.6782C87.7993 43.9613 87.7429 42.4348 86.7265 41.1074C86.1054 40.3109 85.202 39.7136 84.581 39.7136C83.6776 39.7136 83.5646 39.1162 83.5646 33.4082V27.1029H85.5973C87.1218 27.1029 87.6864 26.7711 87.9122 25.7755C88.0816 24.9127 88.7027 24.4481 89.5497 24.4481C90.2837 24.4481 90.9048 24.1162 90.9048 23.7844C90.9048 23.3861 90.0578 23.1206 89.098 23.1206C85.7667 23.1206 83 21.8596 82.4354 20.0675C81.7014 17.9436 80.4027 18.01 79.4993 20.2667C78.7088 22.1914 77.1279 22.9215 73.2884 23.0543C70.9735 23.1206 70.2395 24.4481 72.498 24.4481C73.3449 24.4481 73.966 24.9127 74.1354 25.7755C74.3612 26.7711 74.9258 27.1029 76.4503 27.1029H78.483V33.4082C78.483 39.1162 78.3701 39.7136 77.4667 39.7136C76.8456 39.7136 75.9422 40.3109 75.3776 41.041C74.4177 42.3021 74.3048 44.1605 74.0789 61.9481C73.8531 78.0764 73.6837 81.5277 73.0061 81.5277C72.6109 81.5277 71.9898 80.7976 71.7075 79.8684C71.0864 77.9437 70.1265 77.6782 69.6184 79.3375C69.449 80.0012 68.6585 81.1295 67.868 81.926C66.6259 83.1206 66.4565 83.7844 66.5694 87.0366C66.6259 90.687 66.6259 90.8198 65.2143 90.8198C64.085 90.8198 63.8027 90.4879 63.8027 89.1605C63.8027 87.7667 63.5204 87.5012 62.1653 87.5012C60.8667 87.5012 60.4714 87.833 60.302 88.9614C60.1891 89.9569 59.681 90.5543 58.8905 90.687C57.8177 90.8861 57.5918 90.6206 57.5918 89.2268C57.5918 87.7667 57.366 87.5012 55.898 87.5012C54.4299 87.5012 54.2041 87.7667 54.2041 89.2268C54.2041 90.6206 53.9782 90.8861 52.9619 90.687C52.115 90.5543 51.6068 89.9569 51.4939 89.0277C51.3245 87.833 50.9293 87.5012 49.6306 87.5012C48.2755 87.5012 47.9932 87.7667 47.9932 89.1605C47.9932 90.3552 47.7109 90.8198 46.8639 90.8198C46.017 90.8198 45.7347 90.3552 45.7347 89.1605C45.7347 87.7003 45.5088 87.5012 43.7585 87.5012C42.0082 87.5012 41.7823 87.7003 41.7823 89.1605C41.7823 90.3552 41.5 90.8198 40.6531 90.8198C39.8061 90.8198 39.5238 90.3552 39.5238 89.1605C39.5238 87.7667 39.2415 87.5012 37.8864 87.5012C36.5878 87.5012 36.1925 87.833 36.0231 89.0277C35.9102 89.9569 35.402 90.5543 34.6116 90.687C33.5388 90.8861 33.3129 90.6206 33.3129 89.2268C33.3129 87.7667 33.0871 87.5012 31.619 87.5012C30.2075 87.5012 29.9252 87.7667 29.9252 89.1605C29.9252 90.2224 29.5864 90.8198 29.0782 90.8198C28.4571 90.8198 28.2313 90.0233 28.2313 87.5675C28.2313 85.7091 28.4571 84.0498 28.7959 83.8507C29.5299 83.3198 29.5299 71.1074 28.7959 70.5764C28.0054 70.0454 28.0619 66.4613 28.8524 65.864C29.6429 65.333 29.0218 55.5764 28.1184 54.9127C27.8361 54.6472 27.4408 52.4569 27.3279 49.9348C26.9891 41.9038 26.8197 40.4436 26.1422 39.6472C24.9565 38.2534 23.7143 39.5144 23.7143 42.0366C23.7143 43.6959 23.4884 44.3596 22.8109 44.3596C22.1898 44.3596 22.0204 43.8286 22.1333 42.7667C22.1898 41.9038 21.851 40.5764 21.2299 39.7799C20.2701 38.5189 20.1007 38.5189 18.8585 39.5144C17.9551 40.1782 17.5034 41.1737 17.5034 42.4348C17.5034 44.5587 16.0918 45.156 15.6401 43.1649C15.4143 42.1029 15.3578 42.1029 15.3014 43.1649C15.2449 44.6914 14.1156 44.7578 14.1156 43.2313C14.1156 42.2357 14.0027 42.3021 13.2687 43.4304C12.7041 44.2932 12.4782 44.3596 12.4218 43.7622C12.4218 43.0985 12.2524 43.0321 11.6313 43.6295C11.0102 44.2932 10.6714 44.1605 10.2197 43.2313C9.6551 42.1029 9.6551 42.1029 9.59864 43.1649C9.59864 43.8286 9.37279 44.3596 9.03401 44.3596C8.7517 44.3596 8.46939 43.8286 8.41293 43.1649C8.41293 42.2357 8.3 42.2357 7.90476 43.364C7.50952 44.5587 7.45306 44.6251 7.05782 43.4967C6.83197 42.8994 6.9449 41.9702 7.28367 41.4392C8.69524 39.4481 5.92857 36.7268 4.17823 38.4525C3.44422 39.1826 3.33129 40.4436 3.67007 46.4171C3.95238 51.5277 3.89592 53.9171 3.38776 55.0454C2.7102 56.5056 2.65374 56.5056 1.91973 55.3109C1.18571 54.1826 1.12925 54.249 1.12925 56.1074C1.12925 57.3021 0.846939 58.4304 0.508163 58.6295C0.112925 58.9613 0.282313 59.6251 0.959864 60.5543C1.91973 61.8153 1.97619 62.6118 1.58095 68.9171C1.07279 76.8817 0.903401 78.0764 0.338776 79.6693C-0.112925 80.7976 0.22585 92.1472 0.903401 98.6516C1.12925 100.908 1.01633 102.501 0.621088 102.966C0.282313 103.364 0 103.961 0 104.227C0 104.492 93.3891 104.758 207.5 104.758H415L414.887 65.3994C414.831 43.8286 414.661 28.4304 414.605 31.218L414.379 36.395H411.895C409.467 36.395 409.354 36.3286 409.354 34.4038C409.354 32.8773 409.128 32.4127 408.224 32.4127C407.321 32.4127 407.095 32.8773 407.095 34.4038C407.095 35.9304 406.813 36.395 406.022 36.395C405.176 36.395 404.837 35.864 404.667 34.2047L404.441 32.0808L404.385 34.2047C404.329 35.3994 404.046 36.395 403.764 36.395C403.425 36.395 402.522 37.8552 401.675 39.7136C399.981 43.364 399.416 43.7622 399.021 41.5056C398.908 40.7091 398.852 41.2401 398.965 42.6339C399.021 44.2932 398.682 46.218 398.005 47.7445C397.045 50.0675 396.932 51.8596 396.932 69.9127V89.4923H393.544H390.156V49.6693V9.8463H387.333C384.623 9.8463 384.51 9.77993 384.51 7.98789C384.51 5.864 382.195 3.87285 379.824 3.87285C378.638 3.87285 378.356 3.54099 378.13 1.68259C378.017 0.554268 377.848 0.0232925 377.735 0.554268ZM206.427 63.4083C205.806 64.1383 205.354 63.01 205.806 61.8153C206.258 60.687 206.258 60.687 206.484 61.8153C206.653 62.479 206.597 63.2091 206.427 63.4083ZM142.681 82.656C142.512 83.3198 142.399 82.9215 142.399 81.8596C142.399 80.7313 142.512 80.2667 142.681 80.6649C142.794 81.1295 142.794 82.0587 142.681 82.656Z" fill="#05AFF2" fill-opacity="0.3"/>
</svg>