<svg width="970" height="116" viewBox="0 0 970 116" fill="none" xmlns="http://www.w3.org/2000/svg">
<path fill-rule="evenodd" clip-rule="evenodd" d="M95.1687 45.433C95.1687 21.403 111.673 0.448242 138.793 0.448242V0.463696C166.408 0.463696 179.961 21.1557 179.961 42.9759C179.961 48.2611 179.715 50.4734 179.591 51.5892L179.59 51.5989H114.269C116.494 65.7696 127.466 72.9245 141.142 72.9245C153.227 72.9245 161.231 67.0059 166.903 59.1246L179.59 72.0591C171.461 82.042 158.759 90.4177 139.535 90.4177C112.677 90.4177 95.1687 72.43 95.1687 45.433ZM138.793 17.7096C126.971 17.7096 118.209 24.4782 115.134 36.1919H160.366C159.748 26.3326 151.975 17.7096 138.793 17.7096ZM332.522 2.30273H310.115H291.386H269.427V19.3014H291.386V88.5634H291.509H310.115V19.3014H332.522V2.30273ZM343.094 68.4287C337.237 68.4287 332.601 73.1729 332.601 79.0297C332.601 84.8865 337.237 89.6307 343.094 89.6307C348.951 89.6307 353.788 84.8865 353.788 79.0297C353.788 73.1729 348.935 68.4287 343.094 68.4287ZM231.832 36.6856L222.591 35.0784C211.496 33.1004 206.813 30.2724 206.813 25.9609C206.813 21.0313 213.597 17.7088 222.962 17.7088C233.687 17.7088 241.444 22.2676 247.857 27.939L261.904 14.6336C253.034 6.13427 239.837 0.462891 223.704 0.462891C203.615 0.462891 187.713 10.0749 187.713 26.9654C187.713 42.1251 199.056 49.7591 218.403 52.9734L230.117 54.9514C242.078 56.9295 245.647 59.8811 245.647 64.0689C245.647 69.2458 239.729 73.1864 227.042 73.1864C214.355 73.1864 205.098 67.515 199.071 60.4992L184.653 73.5573C193.4 83.4165 208.189 90.4478 225.821 90.4478C250.469 90.4478 264.763 79.7232 264.763 63.698C264.763 47.6729 253.544 40.4098 231.863 36.701L231.832 36.6856ZM19.3784 88.6261H0L25.6369 2.11816L44.9914 2.13362V2.11816H89.3731V19.4259H44.9914V2.16217L19.3784 88.6261ZM86.5297 37.5967H44.9914V54.9044H86.5297V37.5967Z" fill="white"/>
<path d="M408.489 20.1203H370.605V2.90032H427.185V57.5121C427.185 76.823 413.532 90.845 392.745 90.845C367.653 90.845 357.69 75.5931 357.69 58.9881V54.3141H376.14V58.9881C376.14 67.8441 381.429 73.8711 392.622 73.8711C402.462 73.8711 408.489 67.4751 408.489 57.3891V20.1203ZM474.393 90.845C456.805 90.845 442.045 83.834 433.312 73.9941L447.703 60.9561C453.73 67.9671 463.078 73.6251 475.623 73.6251C488.292 73.6251 494.196 69.6891 494.196 64.5231C494.196 60.3411 490.629 57.3891 478.698 55.4211L467.014 53.4531C447.703 50.2551 436.387 42.6292 436.387 27.5002C436.387 10.6493 452.254 1.05533 472.302 1.05533C488.415 1.05533 501.576 6.71331 510.432 15.2003L496.41 28.4842C490.014 22.8262 482.265 18.2753 471.564 18.2753C462.217 18.2753 455.452 21.5963 455.452 26.5162C455.452 30.8212 460.126 33.6502 471.195 35.6182L480.42 37.2172C502.068 40.9072 513.261 48.1642 513.261 64.1541C513.261 80.144 498.993 90.845 474.393 90.845Z" fill="white"/>
<path d="M590.181 62.8011H566.073V89H547.377V2.90032H590.181C611.706 2.90032 624.498 14.8313 624.498 32.7892C624.498 50.7471 611.706 62.8011 590.181 62.8011ZM566.073 45.5812H586.737C599.775 45.5812 605.556 41.2762 605.556 32.7892C605.556 24.3022 599.775 20.1203 586.737 20.1203H566.073V45.5812ZM675.736 90.845C649.783 90.845 630.226 73.0101 630.226 45.8272C630.226 18.8903 649.783 1.05533 675.736 1.05533C701.566 1.05533 721.123 18.8903 721.123 46.0732C721.123 73.0101 701.566 90.845 675.736 90.845ZM649.291 45.9502C649.291 60.9561 659.377 73.3791 675.613 73.3791C692.464 73.3791 702.058 60.8331 702.058 45.9502C702.058 31.0672 692.464 18.5213 675.613 18.5213C659.377 18.5213 649.291 30.9442 649.291 45.9502ZM729.114 2.90032H746.949V16.4303H750.885L757.158 4.62231C761.709 2.53133 768.474 1.42433 773.517 1.42433C777.945 1.42433 781.635 1.79332 785.079 2.90032V22.8262H784.956C781.512 21.3503 776.592 20.2433 770.811 20.2433C760.11 20.2433 747.81 26.6392 747.81 43.2442V89H729.114V2.90032ZM868.558 61.0791C868.558 79.283 855.52 90.845 836.701 90.845C817.882 90.845 806.074 80.39 806.074 61.8171V32.7892H789.961V15.8153H806.074V1.05533H824.77V15.8153H868.435V32.7892H824.77V60.0951C824.77 69.6891 830.92 73.8711 837.439 73.8711C843.958 73.8711 850.108 69.6891 850.108 60.0951V54.8061H868.558V61.0791ZM921.135 90.845C895.182 90.845 875.625 73.0101 875.625 45.8272C875.625 18.8903 895.182 1.05533 921.135 1.05533C946.964 1.05533 966.521 18.8903 966.521 46.0732C966.521 73.0101 946.964 90.845 921.135 90.845ZM894.69 45.9502C894.69 60.9561 904.776 73.3791 921.012 73.3791C937.862 73.3791 947.456 60.8331 947.456 45.9502C947.456 31.0672 937.862 18.5213 921.012 18.5213C904.776 18.5213 894.69 30.9442 894.69 45.9502Z" fill="#9305F2"/>
</svg>
