<svg width="106" height="27" viewBox="0 0 106 27" fill="none" xmlns="http://www.w3.org/2000/svg">
<path id="Union" fill-rule="evenodd" clip-rule="evenodd" d="M29.0902 13.2843C29.0902 6.1881 33.964 0 41.9729 0V0.00456349C50.1278 0.00456349 54.1299 6.11508 54.1299 12.5587C54.1299 14.1195 54.0573 14.7728 54.0207 15.1023L54.0204 15.1052H34.7306C35.3878 19.2899 38.6278 21.4028 42.6665 21.4028C46.2351 21.4028 48.599 19.655 50.2738 17.3276L54.0204 21.1472C51.62 24.0952 47.8688 26.5687 42.1919 26.5687C34.2606 26.5687 29.0902 21.2568 29.0902 13.2843ZM41.9729 5.09742C38.4818 5.09742 35.8943 7.09623 34.9862 10.5554H48.3434C48.1609 7.64385 45.8655 5.09742 41.9729 5.09742ZM99.1821 0.547538H92.5651H87.0342H80.5495V5.56738H87.0342V26.021H87.0707H92.5651V5.56738H99.1821V0.547538ZM102.303 20.0758C100.574 20.0758 99.2047 21.4768 99.2047 23.2063C99.2047 24.9359 100.574 26.3369 102.303 26.3369C104.033 26.3369 105.461 24.9359 105.461 23.2063C105.461 21.4768 104.028 20.0758 102.303 20.0758ZM69.4486 10.7005L66.7196 10.2259C63.443 9.6418 62.0603 8.80668 62.0603 7.53346C62.0603 6.07771 64.0637 5.09656 66.8291 5.09656C69.9962 5.09656 72.287 6.44279 74.1809 8.11759L78.329 4.18842C75.7096 1.6785 71.8124 0.00369958 67.0482 0.00369958C61.1157 0.00369958 56.4199 2.84219 56.4199 7.83009C56.4199 12.3069 59.7695 14.5612 65.4829 15.5105L68.942 16.0946C72.4741 16.6787 73.5283 17.5503 73.5283 18.787C73.5283 20.3158 71.7805 21.4795 68.0339 21.4795C64.2873 21.4795 61.5538 19.8047 59.774 17.7329L55.5163 21.589C58.0992 24.5005 62.4665 26.5769 67.6734 26.5769C74.9521 26.5769 79.1733 23.4099 79.1733 18.6775C79.1733 13.9452 75.8602 11.8003 69.4577 10.7051L69.4486 10.7005ZM6.70891 26.0385H0.986328L8.55711 0.492044L14.2734 0.496608V0.492044H27.3796V5.60316H14.2734V0.50249L6.70891 26.0385ZM26.54 10.9711H14.2734V16.0822H26.54V10.9711Z" fill="white"/>
</svg>
