<svg width="390" height="137" viewBox="0 0 390 137" fill="none" xmlns="http://www.w3.org/2000/svg">
<path d="M186.997 10.8397C186.745 16.3082 186.556 28.0625 186.556 36.9254V53.0797L185.171 53.3311L183.723 53.5825L185.171 53.7082C186.493 53.7711 186.556 54.0225 186.556 59.6168C186.556 65.1482 186.493 65.4625 185.234 65.5254C182.841 65.714 182.275 66.9711 184.541 66.9711C186.241 66.9711 186.556 67.2225 186.556 68.5425C186.556 69.4225 186.619 70.3025 186.745 70.554C186.808 70.8682 186.43 71.0568 185.926 71.1197C183.786 71.2454 183.408 71.3711 183.408 71.9997C183.408 72.3139 184.101 72.6282 184.982 72.6282C186.682 72.6282 186.619 72.3768 186.619 84.2568C186.619 92.6168 186.808 92.1139 184.289 92.1139C181.456 92.1139 181.645 93.6225 184.541 93.874C186.682 94.1254 186.619 93.7482 186.682 99.9711C186.745 106.068 186.556 108.457 186.115 108.394C185.801 108.331 184.667 108.331 183.534 108.394C181.834 108.457 181.519 108.645 181.771 109.588C182.023 110.28 180.763 113.737 178.686 118.263C175.097 125.994 174.089 126.748 176.797 119.583C178.119 116.063 178.182 115.371 177.426 114.743C176.923 114.303 176.23 112.92 175.852 111.6C175.097 108.708 173.019 106.634 171.949 107.703C170.626 109.023 170.186 108.52 170.186 105.377C170.186 103.617 169.934 102.108 169.619 101.92C169.367 101.731 168.926 100.16 168.675 98.4625C168.36 96.2625 167.73 94.754 166.471 93.434C165.464 92.3654 164.078 90.6054 163.386 89.5368L162.189 87.5882L160.867 89.7254C160.175 90.8568 158.852 92.4911 157.971 93.3082C156.145 95.0682 155.452 97.4568 154.697 104.811C154.445 107.388 154.067 108.457 153.438 108.457C152.934 108.457 152.556 108.143 152.556 107.828C152.556 106.76 151.549 107.137 149.786 108.834C148.904 109.777 148.149 111.097 148.149 111.788C148.149 112.48 147.582 113.674 146.952 114.365C146.008 115.371 145.567 117.383 145.001 122.914C144.56 126.874 144.119 130.268 143.993 130.394C143.867 130.52 143.678 128.131 143.678 125.051C143.615 121.971 143.426 117.634 143.175 115.434C142.797 111.663 142.671 111.348 141.097 110.908C138.515 110.217 135.052 107.891 134.612 106.634C134.423 105.943 133.478 105.125 132.534 104.748C130.708 103.994 127.938 99.3425 127.119 95.6339C126.552 93.3711 122.901 89.5997 121.201 89.5997C119.123 89.5997 116.289 92.4282 115.093 95.6968C112.889 101.731 111.63 103.931 109.804 104.685C108.797 105.063 107.726 106.005 107.349 106.823C106.782 108.08 103.004 110.405 100.171 111.223C99.2265 111.474 99.0376 112.291 99.0376 115.245C99.0376 120.651 98.282 128.571 97.7783 128.571C97.5265 128.571 97.1487 125.051 96.9598 120.714C96.7079 116.377 96.2042 110.971 95.7635 108.771L95.0709 104.685H90.4746H85.8783L85.6894 106.697L85.5005 108.771L79.2672 108.96C71.2709 109.211 70.8302 108.834 70.5783 102.234C70.3894 97.6454 70.3265 97.4568 68.8154 97.2682C67.9339 97.1425 66.6746 96.8282 65.982 96.514C64.6598 95.8854 62.9598 95.634 61.1339 95.7597C60.1265 95.8854 60.0005 96.6397 60.0005 102.485V109.085H56.5376C53.0746 109.085 53.0746 109.085 53.0746 111.034C53.0746 112.417 52.7598 113.045 51.8154 113.297C51.1228 113.485 50.5561 114.051 50.5561 114.491C50.5561 115.183 49.4228 115.371 45.8339 115.371C42.245 115.371 41.1116 115.183 41.1116 114.491C41.1116 114.051 40.545 113.485 39.8524 113.297C38.9079 113.045 38.5931 112.417 38.5931 111.034C38.5931 109.085 38.5931 109.085 35.1302 109.085H31.7302L31.5413 102.611L31.3524 96.1997L28.8339 96.3254C27.4487 96.3254 25.182 96.6397 23.7968 96.954L21.2783 97.4568L21.0894 102.234C20.8376 108.834 20.3968 109.211 12.4005 108.96L6.16719 108.771L5.97831 106.697L5.78941 104.685H1.06719C-1.51429 104.685 -3.65503 104.748 -3.65503 104.811C-3.71799 104.937 -3.96984 111.223 -4.15873 118.828L-4.53651 132.657L-6.74021 132.845C-7.93651 132.971 -12.9735 132.845 -17.8847 132.657L-26.8884 132.217V127.691C-26.8884 125.24 -27.2032 119.08 -27.518 114.051C-28.0217 106.508 -27.9587 103.994 -27.2032 99.9082C-26.6995 97.1425 -26.2587 94.5025 -26.2587 93.9997C-26.2587 92.4911 -27.3921 94.4397 -28.2106 97.4568C-28.5884 98.8397 -29.218 100.348 -29.5328 100.788C-29.9106 101.228 -30.2884 106.194 -30.4143 112.417C-30.5402 118.325 -30.7921 125.177 -31.0439 127.565L-31.4217 131.903L-36.8995 131.463C-52.5773 130.268 -52.1365 130.331 -51.381 129.451C-50.9402 128.885 -50.8773 128.571 -51.318 128.571C-51.6328 128.571 -52.1365 129.011 -52.3254 129.577C-52.7032 130.52 -53.3958 130.583 -57.2995 130.143C-63.5328 129.514 -74.3624 129.451 -78.455 130.017C-81.3513 130.457 -81.7921 130.394 -81.4773 129.577C-80.9736 128.32 -81.2884 128.32 -83.1143 129.451C-83.9958 129.954 -88.655 130.583 -95.8328 131.085C-107.922 131.965 -113.022 132.845 -106.851 132.908C-104.962 132.971 -95.581 132.531 -86.0736 131.965C-67.7513 130.834 -59.3143 131.148 -47.0365 133.285C-43.5106 133.914 -40.0476 134.103 -36.5217 133.788C-31.9254 133.474 -31.2958 133.537 -31.2958 134.48C-31.2958 135.045 -31.6106 135.485 -31.9884 135.485C-32.4921 135.485 -32.4921 135.8 -31.9254 136.428C-30.855 137.685 -26.2587 137.685 -26.2587 136.428C-26.2587 135.611 -24.7476 135.485 -16.4995 135.485C-7.81059 135.485 -5.04021 135.925 -7.49577 136.931C-7.93651 137.12 86.0042 137.308 201.289 137.308C316.575 137.371 410.767 137.183 410.578 136.994C410.389 136.805 407.997 135.863 405.227 134.92L400.315 133.16V123.48V113.8L404.093 111.914C406.801 110.531 407.934 109.651 408.06 108.583C408.249 107.137 407.619 106.76 406.612 107.765C405.793 108.457 397.293 111.223 390.871 112.794C388.101 113.485 377.901 115.623 368.204 117.571C347.489 121.657 342.389 123.04 340.06 125.303C338.801 126.434 338.297 126.623 338.297 125.994C338.297 124.548 340.815 122.474 343.649 121.468C346.419 120.463 354.856 118.514 371.038 115.12C384.008 112.354 397.167 108.645 394.649 108.52C379.664 107.388 373.367 106.32 352.778 101.228C329.293 95.3825 326.964 95.0054 326.964 97.0797C326.964 97.7082 327.53 98.3997 328.223 98.5882C329.419 98.9025 329.482 99.4682 329.482 107.954C329.482 120.903 328.789 131.274 328.034 130.52C327.656 130.143 327.341 127.628 327.278 124.925C327.152 121.405 326.838 119.52 326.019 118.263C325.075 116.88 324.949 115.748 325.264 111.914C325.578 107.703 325.452 107.137 324.319 106.32C323.249 105.565 323.06 104.748 323.06 100.788C323.06 98.2739 322.745 95.8225 322.367 95.3825C321.989 94.9425 321.612 91.3597 321.486 87.5254C321.297 81.6168 321.108 80.2968 320.101 79.5425C319.471 78.9768 318.778 77.4682 318.526 76.2111C318.023 73.4454 316.889 73.6968 316.889 76.5254C316.889 77.5939 316.449 78.9768 315.882 79.6054C315.064 80.4854 314.812 82.434 314.623 87.8397C314.434 91.7368 314.182 95.3825 313.93 95.8854C313.741 96.3882 313.615 98.714 313.678 101.04C313.804 104.497 313.615 105.44 312.545 106.508C311.538 107.514 311.286 108.645 311.223 113.297C311.097 117.823 310.845 119.017 309.901 119.771C309.019 120.525 308.641 121.971 308.326 126.56C307.886 132.091 307.319 133.663 306.564 131.211C306.375 130.645 306.06 127.44 305.871 124.171C305.619 118.954 305.43 118.137 304.297 117.634C303.101 117.068 303.038 116.628 303.227 98.7768C303.415 79.9197 303.164 71.8739 302.471 75.4568L302.093 77.3425H297.182C293.404 77.3425 292.082 77.0911 291.704 76.3997C291.389 75.8968 290.949 75.6454 290.697 75.8968C290.508 76.1482 290.193 85.7654 290.004 97.2682C289.878 108.771 289.626 118.263 289.501 118.451C289.312 118.577 289.186 119.52 289.186 120.525C289.186 122.788 288.178 122.851 287.738 120.525C287.549 119.52 287.738 118.451 288.304 117.823C288.934 117.131 289.186 115.245 289.186 111.725V106.634L282.449 106.445L275.649 106.257V102.8C275.649 99.594 275.523 99.3425 274.264 99.4054C273.445 99.4054 272.815 99.2168 272.815 98.9025C272.815 98.5882 272.501 98.5254 272.123 98.7768C271.682 99.0282 271.556 100.034 271.745 101.228C271.934 102.36 271.934 103.491 271.745 103.68C271.556 103.868 270.234 102.863 268.786 101.417C260.223 92.8054 244.293 92.8682 235.352 101.605C233.904 102.925 232.582 104.057 232.33 104.057C232.078 104.057 231.889 103.051 232.015 101.731C232.204 99.7197 232.015 99.4054 230.441 98.9654C228.364 98.3997 227.734 99.3425 228.363 101.857C228.615 102.737 228.615 104.12 228.363 105C227.986 106.508 227.797 106.508 221.249 106.697L214.575 106.885L214.197 111.285C213.882 114.428 213.756 112.92 213.756 105.943C213.756 84.8225 213.567 77.9082 213.189 75.7711L212.749 73.5711L212.371 75.4568L212.056 77.3425H207.145C203.493 77.4054 202.108 77.1539 201.73 76.5254C201.415 75.9597 201.038 75.834 200.786 76.274C200.282 77.0911 200.282 113.611 200.786 115.685C201.101 116.88 200.912 117.257 200.156 117.257C198.897 117.257 198.834 118.891 200.03 121.72C200.471 122.914 201.101 124.863 201.289 126.057L201.667 128.257L200.471 125.743C196.315 117.383 193.986 111.725 193.986 110.217C194.049 108.771 193.734 108.457 192.349 108.394C191.404 108.331 190.271 108.331 189.893 108.394C189.263 108.457 189.075 106.697 189.075 101.228V93.9997H191.278C192.789 93.9997 193.482 93.6854 193.482 93.0568C193.482 92.4282 192.789 92.1139 191.278 92.1139H189.075V82.3711V72.6282H190.964C192.034 72.6282 192.852 72.3139 192.852 71.9997C192.852 71.3711 191.53 71.1197 189.893 71.3082C189.389 71.3711 189.075 70.6168 189.075 69.234C189.075 67.2225 189.264 67.034 191.152 66.7825L193.167 66.5939L191.152 66.0911L189.075 65.5254V59.6797C189.075 54.1482 189.138 53.834 190.523 53.5825L191.908 53.3311L190.523 53.2054L189.075 53.1425L188.949 34.4111C188.886 19.4511 188.697 4.86824 188.445 1.41109C188.445 1.15967 188.193 0.9711 187.941 0.9711C187.626 0.9711 187.186 5.43394 186.997 10.8397ZM260.097 106.948C266.267 109.023 270.989 111.914 275.145 116.125C278.356 119.394 284.149 128.068 284.149 129.64C284.149 130.08 284.778 130.96 285.534 131.714L286.919 132.971H285.219C283.771 132.971 283.204 132.343 281.064 128.068C274.893 115.874 264.189 108.205 252.038 107.388C248.197 107.137 247.882 107.2 246.749 108.834C245.741 110.217 245.678 110.72 246.308 111.788C246.938 112.794 246.938 113.108 246.245 113.548C245.804 113.863 245.049 114.114 244.608 114.114C242.53 114.114 235.667 118.011 233.023 120.714C230.378 123.354 226.223 130.457 226.223 132.28C226.223 132.657 225.278 132.971 224.208 132.971C222.445 132.908 222.256 132.783 223.138 132.154C223.641 131.714 224.964 129.577 226.034 127.314C229.182 120.525 235.038 115.057 241.523 112.794C243.286 112.165 243.852 111.663 243.852 110.468C243.852 109.714 244.293 108.205 244.797 107.2C245.741 105.377 245.93 105.314 250.526 105.314C253.989 105.314 256.634 105.754 260.097 106.948ZM255.941 109.651C261.104 111.411 262.93 112.543 267.023 116.314C270.864 119.834 274.893 126.685 275.712 130.897C276.089 132.845 275.964 132.971 274.452 132.971C273.067 132.971 272.815 132.783 273.13 131.588C273.697 129.137 269.667 121.783 265.764 118.137C262.238 114.805 256.823 111.6 254.682 111.6C253.863 111.6 253.171 112.417 252.478 114.114C251.597 116.314 251.282 116.628 249.393 116.628C242.845 116.628 234.408 124.737 234.408 131.085C234.408 132.594 234.156 132.971 233.086 132.971C231.826 132.971 231.763 132.72 232.141 130.394C233.338 123.04 238.941 117.257 247.504 114.743C248.952 114.303 250.149 113.548 250.149 113.045C250.149 112.605 250.464 112.228 250.841 112.228C251.282 112.228 251.408 111.537 251.219 110.343C250.715 108.08 251.156 108.017 255.941 109.651ZM186.367 117.508C186.493 118.514 186.367 119.08 185.989 118.891C185.675 118.64 185.171 118.828 184.919 119.205C184.667 119.583 184.982 120.211 185.549 120.525C186.178 120.903 186.556 121.845 186.493 123.417C186.493 124.674 186.304 125.365 186.115 124.925C185.863 124.297 185.612 124.297 184.919 124.863C183.66 125.931 183.849 126.623 185.297 126.245C186.367 125.931 186.556 126.245 186.556 128.194C186.556 129.451 186.367 130.394 186.115 130.394C184.793 130.205 183.975 130.52 184.352 131.085C184.604 131.463 184.982 131.588 185.297 131.4C185.612 131.211 185.989 131.337 186.178 131.651C186.556 132.217 183.66 132.971 180.826 132.971C179.064 132.971 179.001 132.845 179.001 129.828C179.001 126.371 178.749 126.12 176.986 127.754C175.223 129.325 181.078 119.143 183.093 117.068C185.108 114.994 186.052 115.12 186.367 117.508ZM192.16 116.44C193.545 117.823 199.778 128.194 199.778 129.137C199.778 129.514 199.526 129.828 199.212 129.828C198.897 129.828 198.519 130.457 198.393 131.211C198.141 132.908 196.126 133.348 191.656 132.657C189.201 132.28 188.949 132.091 190.145 131.651C191.152 131.274 191.404 130.834 191.089 129.703C190.775 128.571 190.649 128.445 190.46 129.325C190.082 131.337 189.012 130.52 189.201 128.445C189.326 126.937 189.704 126.371 190.523 126.434C191.719 126.56 191.782 126.308 190.964 124.485C190.523 123.417 190.397 123.417 190.397 124.297C190.334 124.925 190.019 125.428 189.641 125.428C189.263 125.428 189.075 124.423 189.201 123.04C189.326 121.594 189.704 120.777 190.208 120.84C190.649 120.965 190.964 120.4 190.901 119.268C190.838 118.263 190.712 118.011 190.523 118.64C190.082 120.4 189.075 119.96 189.075 118.011C189.075 115.183 190.208 114.617 192.16 116.44ZM17.5005 124.485V132.657L10.4487 132.845L3.33386 133.034V124.485V115.937L10.4487 116.125L17.5005 116.314V124.485ZM88.6487 124.485V132.657H81.4079H74.1672L73.9783 125.177C73.9154 121.028 73.9783 117.257 74.1042 116.817C74.3561 116.125 76.0561 116 81.5339 116.125L88.6487 116.314V124.485ZM216.275 120.085C215.897 122.097 214.889 122.097 214.889 120.148C214.889 119.331 214.449 118.325 213.945 117.885C213.441 117.445 213.189 116.817 213.378 116.503C214.134 115.371 216.589 118.451 216.275 120.085Z" fill="#00C1D5" fill-opacity="0.3"/>
</svg> 
