<svg width="1280" height="191" viewBox="0 0 1280 191" fill="none" xmlns="http://www.w3.org/2000/svg">
<path d="M543.629 -0.28154C542.718 0.426865 542.718 1.22972 543.499 1.98535C544.28 2.69376 544.15 6.33023 543.239 11.4307C541.416 22.104 541.156 22.7652 538.032 22.7652C536.73 22.7652 535.298 22.9541 534.778 23.2375C533.997 23.6625 536.47 25.5988 538.553 26.1183C539.594 26.4017 538.162 32.0689 535.429 38.3501C534.778 39.7669 533.867 42.4116 533.346 44.2534C532.435 47.8427 530.873 49.5428 529.701 48.2677C529.441 47.8899 528.79 46.7564 528.269 45.7647C527.488 43.8284 523.974 43.3089 522.802 44.9618C522.412 45.4813 521.631 45.7647 520.85 45.623C519.027 45.198 515.903 46.3786 515.903 47.6065C515.903 48.7872 513.43 51.1485 511.607 51.6208C511.087 51.7625 510.826 54.0766 510.957 56.8158C511.347 61.6329 511.347 61.7274 514.992 62.3413C519.287 63.097 519.418 63.5692 515.643 64.561C513.039 65.2222 512.649 65.6944 512.519 68.9531C512.388 80.0042 511.607 87.9383 510.696 87.9383C509.004 87.9383 506.401 85.1519 507.052 83.924C507.442 83.2628 507.182 82.7433 506.531 82.7433C505.88 82.7433 505.62 82.1766 506.01 81.421C506.401 80.7126 506.271 79.3902 505.62 78.4929C504.578 77.0761 504.448 77.265 504.318 80.1931C504.188 84.2074 501.584 87.6077 497.028 89.8274C493.774 91.3386 487.396 95.2112 481.018 99.32C479.586 100.265 477.633 101.54 476.592 102.154C472.296 104.94 467.35 106.876 465.918 106.357C463.965 105.648 464.616 89.0717 466.699 87.5605C467.87 86.7576 467.87 86.3798 466.699 85.9548C465.788 85.6242 465.137 84.1601 465.137 82.6489C465.137 81.1376 464.616 79.5319 463.965 79.0596C459.8 76.0843 457.327 73.723 456.546 72.0228C456.155 70.8894 455.244 70.0865 454.723 70.2282C453.031 70.606 444.44 66.9223 442.487 64.8916C441.055 63.3803 440.795 62.2941 441.576 60.6411C442.357 59.2243 442.357 58.1381 441.446 57.5242C440.274 56.7213 440.665 54.4544 442.487 51.7625C443.008 51.0541 441.967 50.204 439.103 49.0233C436.76 48.0788 434.156 46.4259 433.245 45.2924L431.423 43.3089V44.9618C431.293 46.0953 430.121 46.9926 427.127 48.126L422.832 49.7317V57.7131V65.6944L418.015 67.489C408.903 70.8894 407.862 71.4089 407.862 72.3534C407.862 72.8729 407.341 73.6758 406.691 74.148C399.661 79.1541 398.88 80.1459 398.88 84.1601C399.011 86.3798 399.141 99.9811 399.271 114.385L399.401 140.596H390.289H381.177L380.136 138.471C378.053 134.41 377.663 129.498 379.355 128.742C380.657 128.176 380.396 127.751 377.793 126.523C375.189 125.248 374.539 124.35 374.278 120.667C373.888 117.55 374.278 115.944 375.71 114.952C377.793 113.346 376.231 112.118 372.326 112.402C367.379 112.78 365.297 111.316 365.036 107.443C364.906 105.459 364.385 103.57 363.865 103.334C363.474 103.051 362.954 102.579 362.954 102.248C362.954 101.965 361.522 101.115 359.829 100.453C357.617 99.5089 356.575 98.3754 356.185 96.2502C355.794 94.6445 354.623 92.9916 353.451 92.5193C351.759 91.8109 351.759 91.5275 353.191 90.5358C354.753 89.4968 354.623 89.3079 351.499 88.4106C348.375 87.5133 348.114 87.1827 348.244 83.6406C348.375 79.2958 346.162 77.5956 344.99 81.1848C344.6 82.4128 344.469 84.3491 344.73 85.4353C345.12 86.7576 344.73 87.5605 343.428 87.9383C342.257 88.3161 341.475 89.3551 341.475 90.583C341.475 91.6692 340.955 92.7554 340.174 92.8971C339.523 93.0388 338.872 94.2195 338.872 95.5418C338.872 96.8169 338.351 97.8559 337.57 97.8559C336.92 97.8559 336.269 98.1393 336.269 98.5171C336.269 98.8949 334.837 99.8395 333.014 100.595C330.281 101.776 329.5 102.768 328.459 106.593C327.287 111.221 324.944 113.205 321.299 112.685C318.305 112.26 317.654 113.488 317.915 119.439C318.175 123.925 317.785 125.389 316.353 125.909C314.53 126.57 312.838 135.071 312.838 143.335C312.838 145.65 312.448 146.547 311.276 146.405C309.584 146.169 303.726 148.389 303.726 149.239C303.726 150.136 298.78 150.372 271.444 150.608L243.718 150.892L238.121 148.719C234.997 147.491 230.701 145.225 228.358 143.666L224.062 140.785L194.774 140.88C178.633 140.88 164.965 140.738 164.445 140.502C161.841 139.463 159.238 134.457 159.238 130.254C159.238 126.523 158.847 125.72 157.285 125.72C156.244 125.72 155.333 125.909 155.333 126.192C155.333 127.089 151.688 126.098 150.386 124.87C149.605 124.161 148.694 121.894 148.173 119.816C147.783 117.738 146.872 115.849 146.221 115.566C145.7 115.33 144.789 114.291 144.268 113.299C143.748 112.355 142.836 111.41 142.186 111.316C140.884 110.985 138.411 112.591 138.411 113.819C138.411 114.338 137.499 115.377 136.458 116.086C135.417 116.888 134.505 118.683 134.505 120.336C134.505 123.689 132.162 125.625 127.086 126.712C123.571 127.42 123.441 127.562 123.441 131.765C123.441 134.551 122.92 136.251 121.879 136.629C120.968 136.96 120.187 137.952 120.187 138.802C120.187 140.88 116.021 141.494 104.566 141.116L96.1054 140.832L87.6443 143.43C75.6687 147.114 72.024 147.916 67.0775 147.916C62.0009 147.916 61.4802 148.341 61.2199 152.261L60.9595 155.237L52.889 157.551C44.8185 159.865 44.6883 159.959 44.6883 162.179C44.6883 163.785 44.1676 164.446 42.8659 164.446C41.8246 164.446 40.653 164.776 40.2625 165.201C39.872 165.579 38.8307 165.768 38.0496 165.579C37.1385 165.39 36.7479 164.068 37.1385 162.132L37.529 159.015H23.2103C11.1045 159.015 9.02178 159.109 9.41228 159.723C10.5838 161.329 11.1045 165.438 10.3235 166.571C9.15195 168.177 4.72617 168.177 3.55464 166.524C3.03396 165.863 3.03396 163.832 3.2943 162.037L3.94515 158.779H-6.98911H-17.7932L-16.882 160.101C-15.8407 161.423 -15.8407 162.179 -16.2312 166.193C-16.4915 168.413 -16.882 168.696 -19.7458 168.98L-23 169.263V183.856V198.449H628.5H1280V162.415V126.334L1266.2 122.933C1258.26 120.95 1251.36 119.58 1249.93 119.675C1248.5 119.769 1239.26 121.847 1229.23 124.303C1216.09 127.562 1211.4 128.978 1211.92 129.498C1212.31 129.876 1213.22 131.481 1213.74 133.04C1214.26 134.598 1215.05 136.771 1215.57 137.857C1217.26 141.494 1217.26 141.494 1184.19 141.163C1168.31 140.974 1153.6 140.596 1151.65 140.36C1149.05 139.982 1147.75 139.982 1147.49 140.313C1147.23 140.596 1144.49 140.832 1141.37 140.832C1136.16 140.832 1135.64 140.974 1133.56 142.58C1130.56 144.941 1124.97 147.822 1120.54 149.428C1115.47 151.27 1111.17 151.128 1105.83 149.003C1102.06 147.444 1101.54 146.925 1101.8 144.847C1102.19 140.88 1101.8 140.455 1098.8 140.124C1097.11 139.982 1094.64 139.605 1093.21 139.368C1091.38 139.085 1088.65 139.179 1084.09 139.793L1077.59 140.644V143.997C1077.59 147.066 1077.2 147.491 1073.94 148.767L1070.3 150.136L1060.66 148.719C1051.16 147.35 1050.9 147.255 1046.74 144.28C1039.84 139.321 1040.23 139.416 1021.87 139.368C999.093 139.321 995.969 139.085 991.283 136.913C989.07 135.921 986.988 135.354 986.467 135.637C986.076 135.874 985.035 136.11 984.254 136.11C983.343 136.11 983.213 135.212 983.733 133.371C984.254 131.859 984.254 129.356 983.733 127.845C982.952 125.436 982.562 125.2 981.13 125.956C979.568 126.712 979.308 126.664 978.657 125.436C977.355 123.406 976.965 123.028 976.834 123.972C976.704 125.248 973.45 124.634 973.32 123.311C973.32 122.697 972.799 121.8 972.278 121.328C971.628 120.903 971.497 119.816 971.888 118.966C972.539 117.408 970.977 115.802 968.113 115.235C967.072 114.999 966.811 114.244 967.202 113.016C967.983 110.985 966.942 108.718 965.249 108.718C963.687 108.718 960.824 111.93 961.865 112.544C962.386 112.921 963.036 112.874 963.948 112.449C964.598 112.024 964.729 112.307 964.208 113.205C963.687 113.96 962.255 115.188 960.954 115.897C959.392 116.652 958.48 117.927 958.48 119.25C958.48 120.43 957.83 121.564 957.179 121.706C956.398 121.847 956.268 122.508 956.658 123.122C957.83 124.775 955.747 125.673 954.055 124.256C952.753 123.17 952.753 123.217 952.232 124.917C951.972 126.239 951.321 126.664 950.019 126.475C949.108 126.381 947.937 126.57 947.546 126.948C946.245 128.176 946.635 132.804 948.067 132.804C948.848 132.804 949.369 133.748 949.369 134.835C949.369 136.582 948.848 137.007 946.114 137.432C941.689 138.188 933.097 138.14 929.843 137.432C927.891 136.96 926.068 136.96 921.382 137.432C915.134 138.046 892.354 138.14 886.887 137.574L883.633 137.243L883.503 130.584V123.925L878.166 121.375C875.172 120.005 871.787 117.927 870.616 116.747C866.841 113.063 866.45 112.78 863.456 110.371C861.634 108.907 860.202 108.293 859.812 108.718C858.12 110.702 852.392 115.849 849.528 118.069C846.404 120.478 838.594 123.831 836.121 123.831C833.778 123.831 830.914 121.706 830.914 119.958C830.914 118.589 830.263 118.164 828.18 117.927C825.577 117.597 825.447 117.361 826.098 113.96C826.618 111.977 827.269 109.332 827.79 108.01C828.18 106.735 827.79 104.42 826.879 102.815C825.317 99.8395 823.104 98.3282 823.104 100.076C823.104 101.351 821.281 101.823 819.459 101.02C817.767 100.312 817.897 100.501 817.116 92.5193C816.465 86.8521 816.335 86.5215 813.732 86.5215C811.649 86.5215 811.258 86.3326 811.909 85.388C812.82 84.1129 809.176 81.421 803.969 79.4847C801.756 78.6346 800.975 78.5401 800.975 79.1069C800.975 79.4847 800.454 79.9097 799.803 80.0042C797.07 80.382 792.123 84.0657 792.774 85.2464C793.295 86.0964 792.904 86.5215 791.863 86.5215C788.479 86.5215 787.047 87.9855 788.218 90.158C789.52 92.3304 788.999 95.8252 786.917 99.1783C785.485 101.587 784.313 102.106 782.751 101.162C782.1 100.784 781.189 100.642 780.538 100.831C778.586 101.54 775.071 107.065 776.243 107.537C776.894 107.821 777.805 110.229 778.325 112.921C779.106 117.172 778.976 117.833 777.284 117.597C775.201 117.313 771.817 118.872 772.988 119.533C773.769 120.053 770.125 126.995 768.302 128.365C767.261 129.12 767.391 129.734 769.214 130.962C771.296 132.332 771.687 133.937 772.077 141.069C772.598 150.986 771.947 151.884 764.788 150.561C759.841 149.664 758.019 148.53 758.019 146.405C757.889 144.847 755.546 143.194 753.203 143.194C752.552 143.194 749.558 142.533 746.434 141.73L740.837 140.218L728.34 140.502C721.441 140.691 715.063 140.644 714.282 140.455C713.501 140.266 711.809 138.518 710.637 136.582C707.904 132.284 704.649 130.065 698.792 128.601C694.756 127.609 694.366 127.278 694.496 125.389C694.626 122.839 692.283 121.753 689.55 123.075C688.378 123.689 687.988 124.586 688.508 125.673C689.159 127.231 688.769 127.467 683.952 128.79C678.615 130.254 674.32 132.52 672.888 134.787C672.497 135.543 671.196 136.11 670.284 136.11C668.462 136.11 663.646 137.952 662.735 139.038C662.474 139.321 658.179 139.605 653.232 139.699C648.156 139.793 638.002 139.982 630.453 140.124C610.797 140.502 603.768 139.935 597.52 137.432C592.964 135.543 592.443 135.449 590.881 136.204C588.538 137.385 587.496 137.243 587.496 135.921C587.496 135.26 586.846 134.173 586.195 133.465C583.461 130.868 582.029 124.303 580.988 110.607C580.467 102.956 579.426 92.8499 578.515 88.1744C577.604 83.499 577.083 76.4622 577.343 72.4951C577.994 65.4583 577.864 65.3166 575 64.7499C570.444 63.8998 570.184 63.0025 574.349 62.1996C579.166 61.3023 579.686 60.7356 579.686 56.3435C579.686 53.8877 579.035 52.4237 577.734 51.7153C576.692 51.1485 574.74 48.8344 573.568 46.5675C571.616 42.9311 571.225 42.6005 570.444 43.9228C569.143 46.1425 568.362 46.1897 567.32 44.159C566.799 43.1672 566.149 42.1754 565.758 41.9393C564.587 41.2781 561.593 43.6395 561.463 45.198C561.463 46.9454 560.161 48.74 558.989 48.74C558.469 48.74 556.386 43.6867 554.433 37.5472C551.049 27.3462 550.919 26.3072 552.871 25.8349C555.865 25.0321 555.475 23.1902 552.351 22.9069C550.919 22.7652 549.487 22.1985 549.227 21.6317C547.795 19.0343 545.582 4.15779 546.233 2.12703C547.274 -0.564896 545.712 -1.93448 543.629 -0.28154ZM431.293 62.4358C431.293 62.9553 430.772 63.3803 429.991 63.3803C429.34 63.3803 428.689 62.9553 428.689 62.4358C428.689 61.9163 429.34 61.4912 429.991 61.4912C430.772 61.4912 431.293 61.9163 431.293 62.4358ZM436.499 62.4358C436.499 62.9553 435.979 63.3803 435.198 63.3803C434.547 63.3803 433.896 62.9553 433.896 62.4358C433.896 61.9163 434.547 61.4912 435.198 61.4912C435.979 61.4912 436.499 61.9163 436.499 62.4358ZM805.531 94.5501C805.531 97.5254 805.401 97.6198 802.277 97.6198C799.283 97.6198 799.022 97.4309 798.632 95.0696C798.111 91.8581 798.892 91.1497 802.537 91.3386C805.271 91.4803 805.531 91.7164 805.531 94.5501ZM345.381 96.203C345.381 96.9586 344.6 97.3837 343.428 97.3837C341.475 97.3837 340.694 95.9196 342.387 95.3529C344.079 94.6917 345.381 95.0696 345.381 96.203ZM351.889 96.203C351.889 96.9586 351.108 97.3837 349.937 97.3837C348.765 97.3837 347.984 96.9586 347.984 96.203C347.984 95.4474 348.765 95.0223 349.937 95.0223C351.108 95.0223 351.889 95.4474 351.889 96.203ZM808.264 110.985C809.046 111.174 810.087 112.969 810.477 114.952C811.258 119.061 809.696 120.053 802.797 120.053C796.029 120.053 793.165 118.541 793.165 115.094C793.165 112.071 796.029 110.607 802.146 110.607C804.75 110.607 807.483 110.796 808.264 110.985ZM963.687 119.344C963.687 120.005 963.167 120.525 962.386 120.525C960.954 120.525 960.563 118.966 961.995 118.494C963.427 117.975 963.687 118.116 963.687 119.344ZM969.154 118.73C969.935 119.533 969.024 120.525 967.462 120.525C966.811 120.525 966.291 120.005 966.291 119.344C966.291 118.116 968.113 117.738 969.154 118.73ZM837.162 134.268C837.032 136.865 835.73 138.046 833.908 137.385C832.867 136.96 834.949 131.387 836.251 131.387C836.902 131.387 837.292 132.662 837.162 134.268Z" fill="#D904A0" fill-opacity="0.3"/>
</svg> 
