<svg width="1076" height="116" viewBox="0 0 1076 116" fill="none" xmlns="http://www.w3.org/2000/svg">
<path fill-rule="evenodd" clip-rule="evenodd" d="M95.1687 45.433C95.1687 21.403 111.673 0.448242 138.793 0.448242V0.463696C166.408 0.463696 179.961 21.1557 179.961 42.9759C179.961 48.2612 179.715 50.4735 179.591 51.5893L179.59 51.5989H114.269C116.494 65.7696 127.466 72.9245 141.142 72.9245C153.227 72.9245 161.231 67.0059 166.903 59.1246L179.59 72.0591C171.461 82.042 158.759 90.4177 139.535 90.4177C112.677 90.4177 95.1687 72.43 95.1687 45.433ZM138.793 17.7096C126.971 17.7096 118.209 24.4782 115.134 36.1919H160.366C159.748 26.3326 151.975 17.7096 138.793 17.7096ZM332.522 2.30273H310.115H291.386H269.427V19.3014H291.386V88.5634H291.509H310.115V19.3014H332.522V2.30273ZM343.094 68.4287C337.237 68.4287 332.601 73.1729 332.601 79.0297C332.601 84.8865 337.237 89.6307 343.094 89.6307C348.951 89.6307 353.788 84.8865 353.788 79.0297C353.788 73.1729 348.935 68.4287 343.094 68.4287ZM231.832 36.6856L222.591 35.0784C211.496 33.1004 206.813 30.2724 206.813 25.9609C206.813 21.0313 213.597 17.7088 222.962 17.7088C233.687 17.7088 241.444 22.2676 247.857 27.939L261.904 14.6336C253.034 6.13427 239.837 0.462891 223.704 0.462891C203.615 0.462891 187.713 10.0749 187.713 26.9654C187.713 42.1251 199.056 49.7591 218.403 52.9734L230.117 54.9514C242.078 56.9295 245.647 59.8811 245.647 64.0689C245.647 69.2458 239.729 73.1864 227.042 73.1864C214.355 73.1864 205.098 67.515 199.071 60.4992L184.653 73.5573C193.4 83.4165 208.189 90.4478 225.821 90.4478C250.469 90.4478 264.763 79.7232 264.763 63.698C264.763 47.6729 253.544 40.4098 231.863 36.701L231.832 36.6856ZM19.3784 88.6261H0L25.6369 2.11816L44.9914 2.13362V2.11816H89.3731V19.4259H44.9914V2.16218L19.3784 88.6261ZM86.5297 37.5967H44.9914V54.9044H86.5297V37.5967Z" fill="white"/>
<path d="M417.485 20.1203H379.601V2.90032H436.181V57.5121C436.181 76.823 422.528 90.845 401.741 90.845C376.649 90.845 366.686 75.5931 366.686 58.9881V54.3141H385.136V58.9881C385.136 67.8441 390.425 73.8711 401.618 73.8711C411.458 73.8711 417.485 67.4751 417.485 57.3891V20.1203ZM483.39 90.845C465.801 90.845 451.041 83.834 442.308 73.9941L456.699 60.9561C462.726 67.9671 472.074 73.6251 484.62 73.6251C497.289 73.6251 503.193 69.6891 503.193 64.5231C503.193 60.3411 499.626 57.3891 487.695 55.4211L476.01 53.4531C456.699 50.2551 445.383 42.6292 445.383 27.5002C445.383 10.6493 461.25 1.05533 481.299 1.05533C497.412 1.05533 510.572 6.71331 519.428 15.2003L505.406 28.4842C499.011 22.8262 491.262 18.2753 480.561 18.2753C471.213 18.2753 464.448 21.5963 464.448 26.5162C464.448 30.8212 469.122 33.6502 480.192 35.6182L489.417 37.2172C511.064 40.9072 522.257 48.1642 522.257 64.1541C522.257 80.144 507.989 90.845 483.39 90.845Z" fill="white"/>
<path d="M575.069 53.3301V89H556.373V2.90032H575.069V36.1102H583.31L610.124 2.90032H632.387L598.808 43.9822L633.74 89H610.616L583.064 53.3301H575.069ZM639.614 2.90032H657.449V16.4303H661.385L667.658 4.62231C672.209 2.53133 678.974 1.42433 684.017 1.42433C688.445 1.42433 692.135 1.79332 695.579 2.90032V22.8262H695.456C692.012 21.3503 687.092 20.2433 681.311 20.2433C670.61 20.2433 658.31 26.6392 658.31 43.2442V89H639.614V2.90032ZM738.895 90.353C716.632 90.353 698.92 71.9031 698.92 45.9502C698.92 18.5213 717.862 1.42433 740.617 1.42433C746.029 1.42433 751.072 2.28532 755.254 4.62231L761.527 16.4303H765.463V2.90032H784.159V89H765.463V75.3471H761.527L755.254 87.155C751.687 89.123 745.045 90.353 738.895 90.353ZM718.108 45.9502C718.108 60.3411 727.456 72.8871 742.216 72.8871C757.837 72.8871 766.078 60.3411 766.078 45.9502C766.078 31.5592 757.837 18.8903 742.216 18.8903C727.456 18.8903 718.108 31.5592 718.108 45.9502ZM812.18 53.3301V89H793.484V2.90032H812.18V36.1102H820.421L847.235 2.90032H869.498L835.919 43.9822L870.851 89H847.727L820.175 53.3301H812.18ZM907.909 90.845C881.956 90.845 862.399 73.0101 862.399 45.8272C862.399 18.8903 881.956 1.05533 907.909 1.05533C933.739 1.05533 953.296 18.8903 953.296 46.0732C953.296 73.0101 933.739 90.845 907.909 90.845ZM881.464 45.9502C881.464 60.9561 891.55 73.3791 907.786 73.3791C924.637 73.3791 934.231 60.8331 934.231 45.9502C934.231 31.0672 924.637 18.5213 907.786 18.5213C891.55 18.5213 881.464 30.9442 881.464 45.9502ZM975.639 89L951.04 2.90032H970.105L989.292 72.1491H993.72L1000.24 51.8541L986.463 2.90032H1003.81L1010.94 28.4842H1012.29L1019.43 2.90032H1036.77L1022.99 51.8541L1029.51 72.1491H1033.94L1053.13 2.90032H1072.19L1047.59 89H1018.07L1012.05 69.6891H1011.19L1005.16 89H975.639Z" fill="#D904A0"/>
</svg>
