<svg width="1280" height="177" viewBox="0 0 1280 177" fill="none" xmlns="http://www.w3.org/2000/svg">
<path d="M1165.06 1.08554C1164.89 1.98701 1164.54 3.56459 1164.36 4.46606C1164.02 6.94513 1156.88 7.28319 1155.83 4.80412C1155.13 3.00117 1154.96 2.88849 1154.79 4.69144C1154.61 6.04366 1153.22 6.71976 1150.61 6.71976C1148.17 6.71976 1143.81 8.52271 1139.81 11.3398L1132.84 15.8472L1131.8 11.0018L1130.75 6.15634L1130.58 11.9032C1130.41 15.5091 1129.19 18.2136 1127.62 19.115C1125.36 20.3546 1125.01 25.9888 1125.01 56.977V93.4867H1117.17H1109.33V69.3723V45.2578L1102.89 42.1026C1099.23 40.187 1093.31 38.6094 1089.31 38.2714L1082.34 37.708V31.7357C1082.34 28.5805 1081.82 25.8761 1081.12 25.8761C1080.25 25.8761 1079.73 28.6932 1079.73 32.0737V38.2714H1073.81C1068.06 38.2714 1067.71 38.046 1067.02 33.9894L1066.32 29.8201L1066.14 33.9894C1065.8 38.1587 1065.62 38.2714 1059.18 38.2714C1055.52 38.2714 1050.99 39.0602 1048.9 39.9617C1045.59 41.4265 1045.07 41.4265 1044.2 39.9617C1043.68 39.0602 1041.59 38.2714 1039.67 38.2714C1036.89 38.2714 1036.19 38.9475 1036.19 42.1026C1036.19 44.2437 1035.49 46.3847 1034.45 46.7227C1033.4 47.1734 1032.71 60.5829 1032.71 83.4578V119.404H1025.74H1018.78V71.5133V23.6224H1014.42C1010.76 23.6224 1010.07 24.1858 1010.07 27.0029C1010.07 29.5947 1009.37 30.3835 1006.59 30.3835C1004.32 30.3835 1003.1 29.5947 1003.1 28.2425C1003.1 26.7776 1001.71 25.8761 999.271 25.6507C996.484 25.4254 994.917 24.2985 994.22 21.9321L993.001 18.5516L992.827 22.4956C992.479 25.7634 992.131 26.1015 990.563 24.6366C988.822 23.059 988.299 23.059 985.339 24.9746C983.597 26.1015 982.204 27.7917 982.204 28.6932C982.204 29.5947 980.811 30.3835 979.244 30.3835C977.502 30.4962 973.845 32.6372 970.884 35.2289L965.66 39.9617L965.137 35.1162C964.441 28.3552 961.306 30.3835 961.306 37.708C961.306 41.0885 960.61 44.131 959.565 44.469C958.52 44.9198 957.823 65.6537 957.823 103.178C957.823 141.04 957.301 161.097 956.082 161.097C955.211 161.097 954.166 158.393 953.992 155.125C953.121 141.716 952.773 138.899 951.031 133.715C948.071 125.151 947.722 88.6413 950.509 86.5003C952.076 85.2608 952.25 84.472 950.857 83.9086C949.986 83.5705 949.116 81.7675 949.116 79.9646C949.116 78.1617 948.419 76.3587 947.374 76.0206C946.503 75.6826 945.633 74.3304 945.633 73.0909C945.633 69.485 942.324 70.7245 941.801 74.5557L941.279 78.2743L894.781 78.6124L848.109 78.8378L846.89 74.105C845.845 69.3723 845.671 69.3723 844.452 72.5274C843.581 74.3304 843.407 76.246 843.929 76.8094C844.452 77.2602 840.62 77.7109 835.222 77.7109C825.992 77.7109 825.644 77.5982 824.599 74.2177C823.205 70.2737 821.986 70.4991 821.29 75.0065C820.593 79.4012 818.155 79.5139 813.627 75.4572C809.97 72.3021 808.925 68.4708 808.229 54.836C808.054 53.1457 806.139 52.9203 793.252 52.9203H778.449V49.8779C778.449 42.7788 776.882 48.8637 775.837 60.1321C774.966 70.0484 774.095 72.9782 770.961 75.5699C767.303 78.8378 762.427 79.9646 762.95 77.3729C763.124 76.6968 762.95 74.7811 762.776 73.2035C762.427 70.6118 762.253 70.6118 760.686 73.9923C758.77 77.5982 758.422 77.7109 749.366 77.7109C744.141 77.7109 740.31 77.2602 740.833 76.8094C741.355 76.246 741.181 74.3304 740.31 72.5274C739.091 69.3723 738.917 69.3723 737.872 74.105L736.653 78.8378L689.981 78.6124L643.483 78.2743L642.961 74.8938C642.09 70.3864 639.129 68.3581 639.129 72.3021C639.129 73.9923 638.433 75.6826 637.388 76.0206C636.517 76.3587 635.646 78.4997 635.646 80.6407C635.646 82.7817 634.776 84.472 633.731 84.472C632.337 84.472 632.337 84.9227 633.556 85.9369C634.601 86.7257 635.995 90.4442 636.517 94.1628C637.562 100.022 637.388 100.586 635.124 98.7829C633.034 97.2053 629.551 96.8673 611.614 96.8673C599.423 96.8673 590.193 97.318 589.497 97.9941C588.974 98.6702 585.839 99.1209 582.705 99.1209C577.132 99.1209 576.784 98.8956 575.739 93.9375C575.216 91.0077 574.694 86.5003 574.694 83.6832C574.694 80.9788 573.997 77.9363 573.127 76.8094C572.256 75.7953 569.469 71.964 566.857 68.4708C564.245 64.6395 559.195 60.2448 554.493 57.6531C547.701 53.7091 546.83 52.5823 546.83 48.5257C546.83 44.0183 542.825 39.3982 538.993 39.3982C534.988 39.3982 531.156 44.0183 531.156 48.751C531.156 53.1457 530.46 54.0472 524.19 57.315C519.314 59.7941 515.135 63.7381 510.433 70.1611C504.686 78.049 503.641 80.6407 503.467 87.1764C503.293 97.9941 502.596 99.1209 495.456 99.1209C492.147 99.1209 489.012 98.5575 488.49 97.9941C486.748 96.1911 444.082 96.5292 443.908 98.2195C443.908 99.0083 443.559 106.558 443.037 114.897C442.688 123.235 441.469 130.56 440.599 131.123C438.335 132.588 437.29 128.419 436.419 114.333C436.071 107.46 435.548 101.713 435.374 101.375C435.2 101.037 435.026 99.9097 435.2 98.7829C435.548 97.4307 434.329 96.8673 431.02 96.8673C428.582 96.8673 412.038 91.9091 394.275 85.9369C361.186 74.6684 359.097 73.6543 356.484 65.8791C355.962 64.5268 355.614 64.9776 355.439 67.2313C355.439 69.2596 354.569 70.9499 353.524 70.9499C352.653 70.9499 351.782 71.8513 351.782 72.8655C351.782 75.3445 288.566 96.8673 281.426 96.8673C277.42 96.8673 276.898 97.2053 277.943 99.6844C278.639 101.487 278.291 102.501 276.898 102.501C275.679 102.501 275.156 103.29 275.853 104.417C277.42 107.009 274.982 140.814 273.241 140.814C272.544 140.814 271.673 125.376 271.325 106.558C270.803 74.7811 270.629 72.1894 267.494 69.9357C265.578 68.5835 262.792 67.5693 260.876 67.5693C258.09 67.5693 257.741 66.5552 257.741 56.8643V46.1593H264.011C268.713 46.1593 270.454 45.5959 271.151 43.9056C271.673 42.4407 273.589 41.6519 276.201 41.6519C278.465 41.6519 280.381 41.0885 280.381 40.5251C280.381 39.849 277.769 39.3982 274.808 39.3982C264.533 39.3982 256 37.2572 254.259 34.2148C251.995 30.6088 247.989 30.7215 245.203 34.5528C242.765 37.8206 237.888 39.0602 226.046 39.2855C218.906 39.3982 216.642 41.6519 223.608 41.6519C226.22 41.6519 228.136 42.4407 228.659 43.9056C229.355 45.5959 231.097 46.1593 235.799 46.1593H242.068V56.8643C242.068 66.5552 241.72 67.5693 238.933 67.5693C237.018 67.5693 234.231 68.5835 232.49 69.823C229.529 71.964 229.181 75.1192 228.484 105.319C227.788 132.701 227.265 138.56 225.176 138.56C223.956 138.56 222.041 137.321 221.17 135.743C219.254 132.476 216.294 132.025 214.727 134.842C214.204 135.969 211.766 137.884 209.328 139.237C205.497 141.265 204.974 142.392 205.322 147.913C205.497 154.111 205.497 154.336 201.143 154.336C197.66 154.336 196.789 153.773 196.789 151.519C196.789 149.153 195.918 148.702 191.739 148.702C187.733 148.702 186.514 149.265 185.992 151.181C185.644 152.871 184.076 153.886 181.638 154.111C178.329 154.449 177.633 153.998 177.633 151.632C177.633 149.153 176.936 148.702 172.408 148.702C167.88 148.702 167.184 149.153 167.184 151.632C167.184 153.998 166.487 154.449 163.352 154.111C160.74 153.886 159.173 152.871 158.824 151.294C158.302 149.265 157.083 148.702 153.078 148.702C148.898 148.702 148.027 149.153 148.027 151.519C148.027 153.547 147.156 154.336 144.544 154.336C141.932 154.336 141.061 153.547 141.061 151.519C141.061 149.04 140.365 148.702 134.966 148.702C129.567 148.702 128.871 149.04 128.871 151.519C128.871 153.547 128 154.336 125.388 154.336C122.776 154.336 121.905 153.547 121.905 151.519C121.905 149.153 121.034 148.702 116.854 148.702C112.849 148.702 111.63 149.265 111.107 151.294C110.759 152.871 109.192 153.886 106.754 154.111C103.445 154.449 102.748 153.998 102.748 151.632C102.748 149.153 102.052 148.702 97.5238 148.702C93.1701 148.702 92.2993 149.153 92.2993 151.519C92.2993 153.322 91.2544 154.336 89.6871 154.336C87.7714 154.336 87.0748 152.984 87.0748 148.815C87.0748 145.66 87.7714 142.842 88.8163 142.504C91.0803 141.603 91.0803 120.869 88.8163 119.968C86.3782 119.066 86.5524 112.981 88.9905 111.967C91.4286 111.065 89.5129 94.5009 86.7265 93.374C85.8558 92.9233 84.6367 89.2047 84.2884 84.9227C83.2435 71.2879 82.7211 68.8088 80.6313 67.4566C76.9742 65.0903 73.1429 67.2313 73.1429 71.5133C73.1429 74.3304 72.4463 75.4572 70.3565 75.4572C68.4408 75.4572 67.9184 74.5557 68.2667 72.7528C68.4408 71.2879 67.3959 69.0342 65.4803 67.682C62.5197 65.541 61.9973 65.541 58.166 67.2313C55.3796 68.3581 53.9864 70.0484 53.9864 72.1894C53.9864 75.7953 49.6327 76.8094 48.2395 73.4289C47.5429 71.626 47.3687 71.626 47.1946 73.4289C47.0204 76.0206 43.5374 76.1333 43.5374 73.5416C43.5374 71.8513 43.1891 71.964 40.9252 73.8796C39.1837 75.3445 38.4871 75.4572 38.3129 74.4431C38.3129 73.3162 37.7905 73.2035 35.8748 74.2177C33.9592 75.3445 32.9143 75.1192 31.5211 73.5416C29.7796 71.626 29.7796 71.626 29.6054 73.4289C29.6054 74.5557 28.9088 75.4572 27.8639 75.4572C26.9932 75.4572 26.1224 74.5557 25.9483 73.4289C25.9483 71.8513 25.6 71.8513 24.381 73.767C23.1619 75.7953 22.9878 75.908 21.7687 73.9923C21.0721 72.9782 21.4204 71.4006 22.4653 70.4991C26.819 67.1186 18.2857 62.4985 12.8871 65.4283C10.6231 66.6678 10.2748 68.8088 11.3197 78.9504C12.1905 87.6271 12.0163 91.6838 10.449 93.5994C8.35918 96.0785 8.18503 96.0785 5.92109 94.0501C3.65714 92.1345 3.48299 92.2472 3.48299 95.4024C3.48299 97.4307 2.61224 99.3463 1.56735 99.6844C0.348299 100.248 0.870748 101.375 2.96054 102.952C5.92109 105.093 6.09524 106.445 4.87619 117.15C3.30884 130.673 2.78639 132.701 1.0449 135.405C-0.348299 137.321 0.696599 156.59 2.78639 167.633C3.48299 171.464 3.13469 174.169 1.91565 174.958C0.870748 175.634 0 176.648 0 177.099C0 177.549 288.044 178 640 178H1280L1279.65 111.178C1279.48 74.5557 1278.96 48.413 1278.78 53.1457L1278.08 61.9351H1270.42C1262.93 61.9351 1262.59 61.8224 1262.59 58.5546C1262.59 55.9628 1261.89 55.174 1259.1 55.174C1256.32 55.174 1255.62 55.9628 1255.62 58.5546C1255.62 61.1463 1254.75 61.9351 1252.31 61.9351C1249.7 61.9351 1248.65 61.0336 1248.13 58.2165L1247.43 54.6106L1247.26 58.2165C1247.09 60.2448 1246.21 61.9351 1245.34 61.9351C1244.3 61.9351 1241.51 64.4142 1238.9 67.5693C1233.68 73.767 1231.93 74.4431 1230.72 70.6118C1230.37 69.2596 1230.19 70.1611 1230.54 72.5274C1230.72 75.3445 1229.67 78.6124 1227.58 81.2041C1224.62 85.1481 1224.27 88.1906 1224.27 118.841V152.083H1213.82H1203.37V84.472V16.8614H1194.67C1186.31 16.8614 1185.96 16.7487 1185.96 13.7062C1185.96 10.1003 1178.82 6.71976 1171.5 6.71976C1167.85 6.71976 1166.98 6.15634 1166.28 3.00117C1165.93 1.08554 1165.41 0.184067 1165.06 1.08554ZM636.691 107.798C634.776 109.037 633.382 107.122 634.776 105.093C636.169 103.178 636.169 103.178 636.865 105.093C637.388 106.22 637.214 107.46 636.691 107.798ZM440.076 140.476C439.554 141.603 439.205 140.927 439.205 139.124C439.205 137.208 439.554 136.419 440.076 137.096C440.424 137.884 440.424 139.462 440.076 140.476Z" fill="#05AFF2" fill-opacity="0.3"/>
</svg> 
