<svg width="213" height="42" fill="none" xmlns="http://www.w3.org/2000/svg"><path d="m133.528 32.313.713-3.373h3.113l-.754 3.373h-3.072ZM90.826 15.734l-2.469 11.752c-.699 3.291-2.44 4.855-5.896 4.855H67.582l4.635-21.969h14.385a4.114 4.114 0 0 1 4.224 5.362Zm-5.485-2.496H74.754l-3.442 16.333h10.806c2.07 0 2.825-.796 3.264-2.825l2.194-10.49c.397-1.934-.48-3.018-2.194-3.018h-.041Zm7.048 19.075h17.32l.603-2.742H96.05l1.372-6.857h11.423l.617-2.825h-11.34l1.37-6.582h14.289l.549-2.935H96.97l-4.581 21.941Zm29.387 0h3.908l14.262-21.94h-3.675L124.217 29.35h-.164l-3.977-18.979h-3.305l5.005 21.941Zm42.415-16.593-.974 4.54c-.686 3.29-2.441 4.854-5.883 4.854h-11.19l-1.508 7.2h-3.14l4.648-21.942h13.713a4.116 4.116 0 0 1 4.265 5.362l.069-.014Zm-5.486-2.51h-10.024l-1.92 9.093h10.189c2.071 0 2.743-.782 3.25-2.825l.7-3.291c.397-1.865-.48-2.962-2.195-2.962v-.014Zm29.511 2.51-.713 3.456c-.686 3.277-2.482 4.855-5.732 4.855l4.594 8.282h-3.84l-4.511-8.228h-7.46l-1.824 8.228h-3.127l4.635-21.94h13.713a4.116 4.116 0 0 1 4.265 5.361v-.014Zm-5.417-2.495h-10.024l-1.687 7.98h10.176c2.07 0 2.824-.781 3.263-2.824l.466-2.18c.412-1.88-.466-2.963-2.194-2.963v-.013Zm29.552 2.345-2.564 12.04c-.672 3.195-2.373 4.717-5.719 4.717h-9.873a4.114 4.114 0 0 1-4.114-5.17l2.564-12.04c.672-3.181 2.373-4.745 5.719-4.745h9.873a4.115 4.115 0 0 1 4.114 5.211v-.013Zm-5.307-2.455h-8.337c-2.016 0-2.743.754-3.168 2.742l-2.29 10.806c-.398 1.824.452 2.894 2.139 2.894h8.338c2.015 0 2.742-.754 3.167-2.743l2.29-10.806c.398-1.782-.466-2.893-2.139-2.893Z" fill="#000E17"/><path d="M52.867 11.1a4.608 4.608 0 0 0-3.799-1.51H32.475l-6.719 31.637 6.363-3.73 1.07-5.087h16.949s2.825-13.124 3.675-17.512a4.621 4.621 0 0 0-.946-3.799Zm-5.06 5.827-2.044 9.778h-11.3l2.4-11.396h9.6a1.371 1.371 0 0 1 1.083.494 1.369 1.369 0 0 1 .26 1.124ZM1.539 30.942a4.608 4.608 0 0 0 3.798 1.509H21.93L28.65.773l-6.363 3.73-1.084 5.088H4.281S1.457 22.714.593 27.103a4.621 4.621 0 0 0 .946 3.84Zm5.06-5.828 2.057-9.777h11.286l-2.4 11.354h-9.6a1.371 1.371 0 0 1-1.083-.493 1.371 1.371 0 0 1-.26-1.125v.041Z" fill="#62BB46"/></svg>