<svg width="748" height="118" fill="none" xmlns="http://www.w3.org/2000/svg"><path d="M0 2.437h40.857c34.997 0 66.161 12.403 66.161 55.65 0 43.246-30.713 57.255-66.16 57.255H0V2.437ZM38.434 92.75c24.29 0 43.168-7.088 43.168-34.664 0-25.803-19.386-33.057-43.168-33.057h-13.3v67.776h13.3v-.055ZM413.701 59.083c0-31.507 22.035-58.917 58.159-58.917 36.123 0 54.833 27.077 54.833 55.65 0 6.921-.338 9.856-.507 11.296h-87.012c2.93 18.55 17.582 27.908 35.785 27.908 16.118 0 26.769-7.752 34.32-18.052l16.907 16.944c-10.82 13.068-27.727 24.032-53.368 24.032-35.786 0-59.117-23.533-59.117-58.861Zm86.843-12.071c-.789-12.902-11.158-24.198-28.741-24.198-15.779 0-27.445 8.86-31.502 24.198h60.243ZM532.949 95.851l19.217-17.11c8.059 9.192 20.513 16.612 37.251 16.612 16.737 0 24.796-5.15 24.796-11.96 0-5.483-4.79-9.359-20.682-11.961l-15.611-2.603c-25.754-4.208-40.857-14.175-40.857-34.054C537.063 12.68 558.252.11 585.021.11c21.471 0 39.054 7.42 50.888 18.55L617.2 36.104c-8.566-7.42-18.879-13.4-33.193-13.4-12.511 0-21.528 4.374-21.528 10.797 0 5.648 6.255 9.358 21.02 11.96l12.286 2.105c28.91 4.817 43.844 14.342 43.844 35.328 0 20.986-19.048 34.996-51.903 34.996-23.5 0-43.168-9.192-54.833-22.094l.056.055ZM705.452 117.944c-25.135 0-40.858-13.732-40.858-38.04V41.806h-21.471v-22.26h21.471V.166h24.966v19.38h58.271v22.26H689.56v35.827c0 12.57 8.227 18.051 16.906 18.051 8.679 0 16.906-5.481 16.906-18.051V70.71H748v8.25C748 102.828 730.586 118 705.452 118v-.056ZM405.982 2.437h-59.117v22.426h59.117V2.437ZM402.206 48.728h-55.341v22.593h55.341V48.728ZM321.053 2.437l-34.151 112.905h25.811L346.864 2.437h-25.811ZM115.978 58.861C115.978 27.41 137.957 0 174.08 0c36.124 0 54.834 27.077 54.834 55.65 0 6.922-.339 9.856-.508 11.296h-87.012c2.931 18.55 17.583 27.908 35.786 27.908 16.061 0 26.768-7.752 34.32-18.052l16.906 16.944c-10.82 13.068-27.726 24.032-53.368 24.032-35.785 0-59.116-23.533-59.116-58.861l.056-.056Zm86.843-12.07c-.789-12.903-11.158-24.199-28.741-24.199-15.779 0-27.445 8.86-31.502 24.198h60.243ZM226.547 2.437l34.151 112.905h25.754L252.301 2.437h-25.754Z" fill="#10BEC9"/></svg>