<svg width="748" height="118" viewBox="0 0 748 118" fill="none" xmlns="http://www.w3.org/2000/svg">
<path d="M0 2.43652H40.8574C75.8538 2.43652 107.018 14.8401 107.018 58.0864C107.018 101.333 76.3046 115.342 40.8574 115.342H0V2.43652ZM38.4341 92.7499C62.7231 92.7499 81.602 85.6622 81.602 58.0864C81.602 32.2826 62.2159 25.0287 38.4341 25.0287H25.1343V92.8053H38.4341V92.7499Z" fill="#10BEC9"/>
<path d="M413.701 59.0829C413.701 27.5756 435.736 0.166016 471.86 0.166016C507.983 0.166016 526.693 27.2434 526.693 55.8159C526.693 62.7375 526.355 65.6722 526.186 67.1119H439.174C442.104 85.6619 456.756 95.0199 474.959 95.0199C491.077 95.0199 501.728 87.2677 509.279 76.9683L526.186 93.9125C515.366 106.98 498.459 117.944 472.818 117.944C437.032 117.944 413.701 94.4108 413.701 59.0829ZM500.544 47.0116C499.755 34.1096 489.386 22.8136 471.803 22.8136C456.024 22.8136 444.358 31.6732 440.301 47.0116H500.544Z" fill="#10BEC9"/>
<path d="M532.949 95.8512L552.166 78.7409C560.225 87.9329 572.679 95.3528 589.417 95.3528C606.154 95.3528 614.213 90.2031 614.213 83.3923C614.213 77.9103 609.423 74.0342 593.531 71.4317L577.92 68.8292C552.166 64.6208 537.063 54.6537 537.063 34.7748C537.063 12.681 558.252 0.111328 585.021 0.111328C606.492 0.111328 624.075 7.53131 635.909 18.6613L617.2 36.1038C608.634 28.6838 598.321 22.7035 584.007 22.7035C571.496 22.7035 562.479 27.078 562.479 33.5012C562.479 39.1493 568.734 42.8593 583.499 45.4618L595.785 47.566C624.695 52.3834 639.629 61.9076 639.629 82.8939C639.629 103.88 620.581 117.89 587.726 117.89C564.226 117.89 544.558 108.698 532.893 95.7958L532.949 95.8512Z" fill="#10BEC9"/>
<path d="M705.452 117.944C680.317 117.944 664.594 104.212 664.594 79.9031V41.8065H643.123V19.5466H664.594V0.166016H689.56V19.5466H747.831V41.8065H689.56V77.6328C689.56 90.2025 697.787 95.6844 706.466 95.6844C715.145 95.6844 723.372 90.2025 723.372 77.6328V70.7112H748V78.9618C748 102.827 730.586 118 705.452 118V117.944Z" fill="#10BEC9"/>
<path d="M405.982 2.43652H346.865V24.8626H405.982V2.43652Z" fill="#10BEC9"/>
<path d="M402.206 48.7285H346.865V71.3207H402.206V48.7285Z" fill="#10BEC9"/>
<path d="M321.053 2.43652L286.902 115.342H312.713L346.864 2.43652H321.053Z" fill="#10BEC9"/>
<path d="M115.978 58.8615C115.978 27.4096 137.957 0 174.08 0C210.204 0 228.914 27.0774 228.914 55.6498C228.914 62.5715 228.575 65.5062 228.406 66.9459H141.394C144.325 85.4959 158.977 94.8539 177.18 94.8539C193.241 94.8539 203.948 87.1017 211.5 76.8023L228.406 93.7464C217.586 106.814 200.68 117.778 175.038 117.778C139.253 117.778 115.922 94.2448 115.922 58.9168L115.978 58.8615ZM202.821 46.7902C202.032 33.8883 191.663 22.5922 174.08 22.5922C158.301 22.5922 146.635 31.4518 142.578 46.7902H202.821Z" fill="#10BEC9"/>
<path d="M226.547 2.43652L260.698 115.342H286.452L252.301 2.43652H226.547Z" fill="#10BEC9"/>
</svg>
