<svg width="213" height="42" viewBox="0 0 213 42" fill="none" xmlns="http://www.w3.org/2000/svg">
<path d="M133.528 32.3132L134.241 28.9398H137.354L136.6 32.3132H133.528ZM90.8257 15.7341L88.3574 27.4862C87.658 30.7774 85.9164 32.3407 82.4607 32.3407H67.582L72.2171 10.3723H86.6021C87.2744 10.3219 87.9487 10.4376 88.5658 10.709C89.1829 10.9805 89.7238 11.3995 90.141 11.929C90.5582 12.4586 90.8388 13.0826 90.9582 13.7461C91.0776 14.4096 91.0321 15.0923 90.8257 15.7341ZM85.3405 13.2383H74.754L71.312 29.5706H82.1179C84.1886 29.5706 84.9428 28.7753 85.3816 26.7457L87.5757 16.2552C87.9734 14.3217 87.0958 13.2383 85.3816 13.2383H85.3405ZM92.389 32.3132H109.709L110.312 29.5706H96.0504L97.4217 22.7141H108.845L109.462 19.8892H98.1211L99.4924 13.3069H113.781L114.33 10.3723H96.9692L92.389 32.3132ZM121.776 32.3132H125.684L139.946 10.3723H136.271L124.217 29.3512H124.053L120.076 10.3723H116.771L121.776 32.3132ZM164.191 15.7204L163.217 20.2594C162.531 23.5506 160.776 25.1139 157.334 25.1139H146.144L144.636 32.3132H141.496L146.144 10.3723H159.857C160.533 10.3147 161.212 10.425 161.835 10.6933C162.458 10.9617 163.004 11.3798 163.426 11.9104C163.849 12.4411 164.133 13.0679 164.254 13.7349C164.376 14.402 164.33 15.0888 164.122 15.7341L164.191 15.7204ZM158.705 13.2109H148.681L146.761 22.3027H156.95C159.021 22.3027 159.693 21.521 160.2 19.4778L160.9 16.1866C161.297 14.3217 160.42 13.2246 158.705 13.2246V13.2109ZM188.216 15.7204L187.503 19.1761C186.817 22.4535 185.021 24.0305 181.771 24.0305L186.365 32.3132H182.525L178.014 24.0854H170.554L168.73 32.3132H165.603L170.238 10.3723H183.951C184.627 10.3147 185.306 10.425 185.929 10.6933C186.552 10.9617 187.098 11.3798 187.52 11.9104C187.942 12.4411 188.227 13.0679 188.348 13.7349C188.47 14.402 188.424 15.0888 188.216 15.7341V15.7204ZM182.799 13.2246H172.775L171.088 21.2056H181.264C183.334 21.2056 184.088 20.424 184.527 18.3807L184.993 16.2004C185.405 14.3217 184.527 13.2383 182.799 13.2383V13.2246ZM212.351 15.5696L209.787 27.6096C209.115 30.8048 207.414 32.3269 204.068 32.3269H194.195C193.553 32.3486 192.915 32.2196 192.332 31.9505C191.749 31.6813 191.237 31.2794 190.837 30.777C190.438 30.2745 190.161 29.6854 190.03 29.0568C189.898 28.4282 189.916 27.7776 190.081 27.1571L192.645 15.117C193.317 11.9356 195.018 10.3723 198.364 10.3723H208.237C208.883 10.3488 209.526 10.4779 210.113 10.7493C210.7 11.0207 211.215 11.4267 211.616 11.9343C212.017 12.4419 212.292 13.0369 212.42 13.6709C212.548 14.3049 212.524 14.9601 212.351 15.5833V15.5696ZM207.044 13.1149H198.707C196.691 13.1149 195.964 13.8691 195.539 15.8575L193.249 26.6634C192.851 28.4873 193.701 29.5569 195.388 29.5569H203.726C205.741 29.5569 206.468 28.8027 206.893 26.8143L209.183 16.0084C209.581 14.2257 208.717 13.1149 207.044 13.1149Z" fill="#000E17"/>
<path d="M52.8669 11.0994C52.3924 10.5727 51.8028 10.1626 51.144 9.90096C50.4852 9.63933 49.7749 9.53324 49.0684 9.59095H32.4755L25.7561 41.227L32.119 37.4971L33.1886 32.4095H50.138C50.138 32.4095 52.9629 19.2861 53.8131 14.8979C53.943 14.2341 53.9255 13.5499 53.762 12.8935C53.5986 12.2372 53.293 11.6247 52.8669 11.0994ZM47.8068 16.9275L45.7635 26.7049H34.4639L36.8637 15.3093H46.4629C46.6689 15.3049 46.8733 15.347 47.0609 15.4325C47.2485 15.5179 47.4143 15.6446 47.5462 15.803C47.6688 15.9602 47.7556 16.1423 47.8005 16.3365C47.8455 16.5307 47.8477 16.7324 47.8068 16.9275ZM1.53879 30.9422C2.01324 31.4689 2.60282 31.879 3.26165 32.1407C3.92048 32.4023 4.63079 32.5084 5.33731 32.4507H21.9302L28.6496 0.773438L22.2867 4.5034L21.2034 9.59095H4.28141C4.28141 9.59095 1.45651 22.7144 0.592585 27.1026C0.456385 27.7727 0.470611 28.4647 0.634236 29.1287C0.79786 29.7927 1.10681 30.4121 1.53879 30.9422ZM6.59892 25.1142L8.65588 15.3367H19.9418L17.542 26.6912H7.9428C7.73674 26.6956 7.53232 26.6535 7.34477 26.568C7.15721 26.4826 6.99133 26.3559 6.85947 26.1975C6.73692 26.0403 6.65012 25.8582 6.60512 25.664C6.56012 25.4698 6.558 25.2681 6.59892 25.073V25.1142Z" fill="#62BB46"/>
</svg>
