<svg xmlns="http://www.w3.org/2000/svg" width="389" height="118" viewBox="0 0 389 118" fill="none">
  <path d="M176.397 1.47706C176.397 2.32296 176.005 3.23935 175.612 3.45083C175.219 3.7328 175.154 4.79017 175.35 5.91804C175.808 8.03279 174.63 9.58361 173.976 7.75082C173.256 5.77705 172.209 6.55247 172.602 8.73771C172.864 9.86559 172.733 10.9935 172.406 11.2049C172.013 11.4164 171.751 13.3197 171.751 15.4344C171.751 17.5492 171.424 19.4525 171.031 19.7344C170.639 19.9459 170.442 20.9328 170.639 21.8492C170.77 22.8361 170.704 23.7525 170.442 23.8934C169.526 24.5279 168.937 29.9557 169.723 30.8016C170.77 31.9295 170.639 33.1984 169.199 35.3836C168.218 36.8639 167.89 39.0492 167.563 45.6754C167.367 50.2574 166.909 54.4869 166.582 55.1213C166.189 55.8262 166.32 56.5312 166.909 57.2361C168.283 58.6459 168.218 71.3344 166.843 71.8984C166.32 72.1803 165.862 73.0967 165.862 73.9426C165.862 74.859 165.535 75.8459 165.208 76.0574C164.684 76.4098 164.749 76.9033 165.338 77.6082C166.32 78.8771 166.713 106.228 165.731 108.272C165.469 108.907 164.684 109.33 164.095 109.259C163.179 109.118 162.852 108.272 162.721 105.382C162.59 103.338 162.852 101.293 163.179 100.8C163.637 100.236 163.899 88.8869 163.899 67.8803L163.964 35.8771L162.328 35.2426C161.347 34.8197 160.627 34.1852 160.627 33.7623C160.627 33.3393 159.776 32.423 158.664 31.7885C157.551 31.0836 156.701 29.8853 156.701 29.1098C156.701 27.982 156.243 27.7705 153.952 27.7705C150.223 27.7705 148.194 28.4049 148.194 29.6033C148.194 30.1672 147.605 30.5902 146.885 30.5902C145.773 30.5902 145.577 30.0967 145.577 27.0656C145.577 23.8934 145.38 23.4 143.941 22.8361C141.062 21.6377 139.033 23.1885 139.033 26.4312C139.033 28.3344 137.528 29.6033 136.285 28.7574C135.892 28.4754 135.761 42.5033 135.892 68.5853C136.023 101.716 135.958 108.907 135.238 109.189C134.714 109.4 134.125 109.4 133.929 109.259C133.667 109.118 133.34 102.703 133.275 94.9492C133.144 87.2656 132.751 80.4984 132.489 79.9344C131.9 78.7361 132.162 62.8049 132.751 61.6771C132.947 61.3246 132.882 60.9016 132.489 60.7607C132.162 60.6902 131.835 58.9279 131.77 56.8836C131.639 52.5836 130.854 50.8213 129.872 52.4426C129.545 53.0066 129.348 53.923 129.545 54.3459C130.134 56.1082 128.89 55.2623 127.451 52.9361C126.6 51.6672 125.946 49.9049 125.946 48.9885C125.946 48.1426 125.684 47.6492 125.291 47.8607C124.964 48.0721 124.637 49.059 124.637 49.9754C124.637 50.8918 123.917 52.5131 123.001 53.5C121.103 55.4738 120.58 55.6852 121.038 54.3459C121.431 53.2885 120.318 51.2443 119.664 51.9492C119.14 52.5131 118.551 58.8574 118.486 64.7787C118.486 68.8672 117.308 71.8984 116.588 69.8541C116.327 69.2197 116.065 69.2902 115.541 70.0656C114.887 70.982 114.822 70.982 114.822 70.0656C114.822 69.1492 114.756 69.1492 114.167 70.0656C113.775 70.7705 113.513 70.841 113.513 70.2066C113.513 69.7836 112.924 69.3607 112.204 69.3607C111.484 69.3607 110.895 69.7836 110.895 70.2066C110.895 70.841 110.634 70.7705 110.241 70.0656C109.652 69.1492 109.587 69.1492 109.587 70.0656C109.587 70.982 109.521 70.982 108.932 70.0656C108.474 69.2902 108.278 69.2197 108.278 69.9246C108.278 70.6295 108.016 70.6295 107.296 69.7836C106.577 69.0082 106.315 67.3869 106.38 63.9328C106.577 55.5443 104.875 48.2131 104.025 53.4295C103.567 55.8262 103.436 55.9672 102.847 54.8393C102.454 54.0639 101.8 53.2885 101.342 53.0066C100.884 52.6541 100.295 50.7508 100.033 48.7771L99.5095 45.041L99.0515 48.4246C98.7897 50.3984 97.8736 52.6541 96.8921 53.923C95.2562 55.9672 95.1907 56.0377 95.1907 54.4164C95.1907 53.5 94.929 52.3016 94.6018 51.8082C94.0783 50.9623 93.882 51.1738 93.4894 52.7246C93.2277 53.8525 92.9659 56.0377 92.9005 57.659C92.7696 59.2098 92.7042 60.6902 92.6387 60.9016C92.6387 61.1131 92.4424 67.7393 92.3115 75.7049C91.8535 96.641 91.1337 108.836 90.4139 108.836C90.0867 108.836 89.9558 108.202 90.1522 107.497C90.8065 104.818 82.4961 97.6279 75.887 95.1607C74.1203 94.4557 72.0263 93.6098 71.3065 93.3279C68.3619 92.059 66.726 92.1295 61.9491 93.7508C55.9944 95.7951 51.4793 98.4033 47.226 102.492C44.8048 104.818 44.1505 105.875 44.2813 107.285C44.4777 108.977 44.2813 109.118 41.7293 109.33C40.2243 109.4 38.8501 109.259 38.6538 108.977C38.4575 108.625 40.3552 105.875 42.8417 102.703L47.3568 96.9934L46.5062 91.918C45.7864 87.9705 45.132 86.3492 43.6924 84.7984L41.8602 82.8246L21.9021 86.0672C10.9089 87.8295 1.81322 89.3803 1.68235 89.5213C1.55148 89.6623 1.09342 92.2705 0.63537 95.2311C-0.280737 101.223 0.308189 104.043 2.99107 107.144C4.03805 108.413 4.10349 108.695 3.38369 109.048C2.72933 109.33 2.46758 110.246 2.59846 111.797C2.72933 113.066 2.8602 114.969 2.8602 116.026L2.92564 118H195.963H388.999V113.348C388.999 108.977 388.934 108.766 387.56 108.977C385.924 109.189 385.859 108.554 385.662 91.5656C385.597 82.6131 387.167 83.459 370.35 83.459C362.301 83.459 355.562 83.1771 355.365 82.8246C355.169 82.5426 353.664 82.0492 351.963 81.8377C350.327 81.6967 348.691 81.2033 348.429 80.9213C348.102 80.5689 347.644 77.3262 347.382 73.6607C346.859 66.4 345.812 64.2148 343.194 64.9197C341.166 65.4836 340.577 67.3164 340.249 74.0836C340.053 77.4672 339.661 80.4984 339.333 80.8508C339.006 81.2033 337.37 81.6967 335.734 81.8377C334.033 82.0492 332.528 82.5426 332.332 82.8246C332.135 83.1771 325.395 83.459 317.347 83.459H302.624L302.362 85.0803C302.231 85.9262 302.1 87.4066 302.035 88.323C302.035 89.2393 301.642 90.2967 301.184 90.5787C300.726 90.9311 285.218 91.2131 266.765 91.2131H233.13L233.327 83.6C233.392 79.441 233.785 75.7049 234.112 75.2115C234.439 74.718 234.439 73.9426 234.177 73.4492C233.85 72.9557 233.719 69.4312 233.85 65.6951C233.981 59.4213 233.916 58.7164 232.607 57.2361C231.56 56.1082 231.036 55.8967 230.84 56.4607C230.251 58.1525 229.204 57.3771 229.597 55.6148C229.924 54.3459 229.728 53.7115 229.008 53.4295C228.484 53.1475 227.83 51.7377 227.634 50.1869C227.176 47.1557 226.194 47.4377 225.932 50.6098C225.867 51.6672 225.278 52.8656 224.689 53.1475C223.969 53.5705 223.708 54.4164 223.904 55.6148C224.231 57.3771 223.184 58.1525 222.595 56.4607C222.399 55.8967 221.875 56.1787 221.156 57.3066C220.239 58.5754 220.043 60.1967 220.109 64.5672L220.239 70.1361L218.276 69.0082C216.379 67.9508 216.248 67.6689 216.248 63.7918C216.248 60.1262 216.051 59.6328 214.612 58.9279C213.041 58.1525 212.322 55.9672 213.63 55.9672C214.612 55.9672 214.416 54.7689 213.434 54.3459C211.798 53.7115 210.817 54.9098 211.602 56.5312C212.256 57.8 212.125 58.1525 210.555 58.9984C208.919 59.9148 208.788 60.3377 208.984 63.9328C209.115 67.2459 208.919 67.9508 207.807 68.5853C207.087 69.0082 206.367 69.3607 206.171 69.3607C205.974 69.3607 205.778 66.823 205.778 63.7213C205.778 60.4082 205.516 58.082 205.124 58.082C204.796 58.082 204.469 57.5885 204.469 57.0246C204.469 56.4607 204.208 55.9672 203.815 55.9672C203.488 55.9672 203.161 56.2492 203.161 56.6721C203.161 57.0246 202.833 57.3771 202.441 57.3771C201.983 57.3771 201.852 56.6721 201.983 55.6148C202.244 54.3459 201.983 53.782 201.132 53.5C200.347 53.218 199.889 52.3721 199.823 51.1738C199.823 50.1164 199.562 48.6361 199.3 47.8607C198.907 46.7328 198.711 47.1557 198.318 49.7639C198.057 51.5967 197.468 53.218 196.879 53.4295C196.29 53.7115 196.028 54.4164 196.224 55.6148C196.551 57.3771 195.766 58.0115 194.981 56.6721C194.392 55.6148 193.345 55.8262 193.345 57.0246C193.345 57.5885 193.083 58.082 192.691 58.082C192.298 58.082 192.102 60.9721 192.233 65.5541C192.364 71.2639 192.167 73.1672 191.513 73.3787C190.859 73.7312 190.859 74.0131 191.578 74.9295C192.298 75.7754 192.56 79.0885 192.625 89.5918C192.756 96.9934 192.56 104.536 192.364 106.369C191.971 109.118 191.709 109.541 190.466 109.33C187.456 108.907 187.456 108.766 187.456 94.0328C187.456 86.3492 187.718 79.2295 188.11 78.2426C188.765 76.3393 187.848 72.1803 186.736 72.1803C185.885 72.1803 186.016 57.8 186.867 56.8836C187.39 56.3197 187.39 55.6852 186.867 54.6984C186.474 53.923 186.213 52.4426 186.278 51.3148C186.409 45.5344 185.296 35.8066 184.38 35.0312C183.595 34.3967 183.464 33.4098 183.791 31.0836C184.053 29.1098 183.857 26.4312 183.137 23.4705C182.548 21.0033 181.959 17.6902 181.828 16.1394C181.436 10.7115 180.716 6.62296 180.192 6.62296C179.865 6.62296 179.604 7.1164 179.604 7.68034C179.604 8.24427 179.342 8.73771 179.015 8.73771C178.164 8.73771 177.64 6.83443 178.033 5.56558C178.295 5.00165 178.164 4.08525 177.771 3.59181C177.444 3.16886 176.986 2.11148 176.79 1.33607C176.528 -0.00327301 176.463 0.0672226 176.397 1.47706ZM252.565 94.1738C252.827 94.3852 251.976 94.9492 250.667 95.4426C249.424 95.8656 246.61 97.4869 244.451 98.9672L240.525 101.716L240.197 99.4607C239.805 96.9934 239.609 94.5967 239.739 94.0328C239.805 93.4689 252.041 93.6098 252.565 94.1738ZM295.753 97.2049C295.491 99.1082 295.229 100.8 295.164 100.87C294.968 101.152 282.469 94.4557 282.404 94.0328C282.338 93.8213 285.479 93.6803 289.275 93.6803L296.145 93.6098L295.753 97.2049ZM301.838 101.223C301.904 107.144 301.708 108.836 301.053 108.836C300.53 108.836 300.006 107.779 299.81 106.51C299.679 105.311 299.025 102.069 298.501 99.3197C297.389 94.1033 297.585 93.3984 300.333 93.6098C301.708 93.6803 301.773 93.9623 301.838 101.223ZM237.515 97.3459C237.253 99.2492 236.795 101.646 236.468 102.844C236.14 103.972 235.617 106.087 235.29 107.426L234.766 109.893L233.981 107.92C233.588 106.792 233.261 103.267 233.261 99.9541V94.0328H235.617H237.907L237.515 97.3459ZM277.103 96.1475C279.459 96.923 283.124 98.6148 285.283 100.025C289.078 102.492 293.463 106.51 293.463 107.497C293.463 107.779 282.011 107.99 267.942 107.99C253.939 107.99 242.422 107.779 242.422 107.426C242.422 106.651 247.134 102.139 250.078 100.166C255.575 96.4295 264.474 93.9623 270.233 94.5967C271.672 94.7377 274.748 95.4426 277.103 96.1475Z" fill="#9305F2" fill-opacity="0.3"/>
</svg>