<svg width="974" height="147" viewBox="0 0 974 147" fill="none" xmlns="http://www.w3.org/2000/svg">
<path fill-rule="evenodd" clip-rule="evenodd" d="M95.7763 45.4857C95.7763 21.4552 112.281 0.5 139.402 0.5V0.515454C167.017 0.515454 180.57 21.2079 180.57 43.0285C180.57 48.3138 180.324 50.5262 180.2 51.642L180.199 51.6517H114.877C117.102 65.8227 128.074 72.9778 141.751 72.9778C153.835 72.9778 161.84 67.059 167.512 59.1776L180.199 72.1124C172.071 82.0955 159.368 90.4714 140.143 90.4714C113.285 90.4714 95.7763 72.4833 95.7763 45.4857ZM139.402 17.7618C127.58 17.7618 118.818 24.5305 115.742 36.2444H160.975C160.357 26.3849 152.584 17.7618 139.402 17.7618ZM333.133 2.35325H310.725H291.995H270.036V19.3523H291.995V88.6157H292.119H310.725V19.3523H333.133V2.35325ZM343.704 68.4818C337.847 68.4818 333.211 73.2261 333.211 79.083C333.211 84.9399 337.847 89.6842 343.704 89.6842C349.561 89.6842 354.398 84.9399 354.398 79.083C354.398 73.2261 349.545 68.4818 343.704 68.4818ZM232.443 36.737L223.202 35.1298C212.106 33.1517 207.424 30.3237 207.424 26.0121C207.424 21.0824 214.208 17.7599 223.573 17.7599C234.297 17.7599 242.055 22.3187 248.468 27.9902L262.516 14.6846C253.645 6.18507 240.448 0.51357 224.314 0.51357C204.225 0.51357 188.323 10.1258 188.323 27.0166C188.323 42.1767 199.666 49.8108 219.014 53.0252L230.728 55.0033C242.689 56.9813 246.258 59.933 246.258 64.1209C246.258 69.2979 240.34 73.2386 227.652 73.2386C214.965 73.2386 205.708 67.5671 199.681 60.5511L185.263 73.6095C194.01 83.4689 208.799 90.5004 226.432 90.5004C251.08 90.5004 265.375 79.7755 265.375 63.75C265.375 47.7246 254.155 40.4613 232.474 36.7525L232.443 36.737ZM19.9823 88.6846H0.603516L26.241 2.1749L45.5951 2.19035V2.1749H89.9778V19.483H45.5951V2.22129L19.9823 88.6846ZM87.1343 37.6463H45.5951V54.9545H87.1343V37.6463Z" fill="white"/>
<path d="M411.887 20.62H374.003V3.39999H430.583V58.012C430.583 77.323 416.93 91.345 396.143 91.345C371.051 91.345 361.088 76.093 361.088 59.488V54.814H379.538V59.488C379.538 68.344 384.827 74.371 396.02 74.371C405.86 74.371 411.887 67.975 411.887 57.889V20.62ZM477.792 91.345C460.203 91.345 445.443 84.334 436.71 74.494L451.101 61.456C457.128 68.467 466.476 74.125 479.022 74.125C491.691 74.125 497.595 70.189 497.595 65.023C497.595 60.841 494.028 57.889 482.097 55.921L470.412 53.953C451.101 50.755 439.785 43.129 439.785 28C439.785 11.149 455.652 1.555 475.701 1.555C491.814 1.555 504.975 7.213 513.831 15.7L499.809 28.984C493.413 23.326 485.664 18.775 474.963 18.775C465.615 18.775 458.85 22.096 458.85 27.016C458.85 31.321 463.524 34.15 474.594 36.118L483.819 37.717C505.467 41.407 516.66 48.664 516.66 64.654C516.66 80.644 502.392 91.345 477.792 91.345Z" fill="white"/>
<path d="M593.581 63.301H569.473V89.5H550.777V3.39999H593.581C615.106 3.39999 627.898 15.331 627.898 33.289C627.898 51.247 615.106 63.301 593.581 63.301ZM569.473 46.081H590.137C603.175 46.081 608.956 41.776 608.956 33.289C608.956 24.802 603.175 20.62 590.137 20.62H569.473V46.081ZM679.136 91.345C653.183 91.345 633.626 73.51 633.626 46.327C633.626 19.39 653.183 1.555 679.136 1.555C704.966 1.555 724.523 19.39 724.523 46.573C724.523 73.51 704.966 91.345 679.136 91.345ZM652.691 46.45C652.691 61.456 662.777 73.879 679.013 73.879C695.864 73.879 705.458 61.333 705.458 46.45C705.458 31.567 695.864 19.021 679.013 19.021C662.777 19.021 652.691 31.444 652.691 46.45ZM732.514 3.39999H750.349V16.93H754.285L760.558 5.12199C765.109 3.031 771.874 1.924 776.917 1.924C781.345 1.924 785.035 2.29299 788.479 3.39999V23.326H788.356C784.912 21.85 779.992 20.743 774.211 20.743C763.51 20.743 751.21 27.139 751.21 43.744V89.5H732.514V3.39999ZM871.958 61.579C871.958 79.783 858.92 91.345 840.101 91.345C821.282 91.345 809.474 80.89 809.474 62.317V33.289H793.361V16.315H809.474V1.555H828.17V16.315H871.835V33.289H828.17V60.595C828.17 70.189 834.32 74.371 840.839 74.371C847.358 74.371 853.508 70.189 853.508 60.595V55.306H871.958V61.579ZM924.535 91.345C898.582 91.345 879.025 73.51 879.025 46.327C879.025 19.39 898.582 1.555 924.535 1.555C950.365 1.555 969.922 19.39 969.922 46.573C969.922 73.51 950.365 91.345 924.535 91.345ZM898.09 46.45C898.09 61.456 908.176 73.879 924.412 73.879C941.263 73.879 950.857 61.333 950.857 46.45C950.857 31.567 941.263 19.021 924.412 19.021C908.176 19.021 898.09 31.444 898.09 46.45Z" fill="#9305F2"/>
</svg>
