<svg width="762" height="110" viewBox="0 0 762 110" fill="none" xmlns="http://www.w3.org/2000/svg">
<path fill-rule="evenodd" clip-rule="evenodd" d="M170.161 0C137.014 0 116.842 25.6114 116.842 54.9814C116.842 87.9779 138.241 109.963 171.068 109.963C194.564 109.963 210.089 99.7259 220.024 87.5246L204.517 71.7157C197.586 81.3484 187.802 88.5823 173.032 88.5823C156.317 88.5823 142.907 79.8373 140.187 62.5175H220.024L220.025 62.5059C220.177 61.1422 220.477 58.4383 220.477 51.9783C220.477 25.3092 203.913 0.0188875 170.161 0.0188875V0ZM141.244 43.6867C145.003 29.37 155.712 21.0973 170.161 21.0973C186.272 21.0973 195.773 31.6365 196.528 43.6867H141.244ZM379.553 2.26758H406.94V23.0438H379.553V107.697H356.812H356.661V23.0438H329.822V2.26758H356.661H379.553ZM407.033 96.0447C407.033 88.8863 412.699 83.0879 419.858 83.0879C426.997 83.0879 432.928 88.8863 432.928 96.0447C432.928 103.203 427.016 109.002 419.858 109.002C412.699 109.002 407.033 103.203 407.033 96.0447ZM272.582 42.3255L283.876 44.2898L283.914 44.3087C310.413 48.8417 324.126 57.7188 324.126 77.3051C324.126 96.8914 306.655 109.999 276.529 109.999C254.979 109.999 236.903 101.406 226.213 89.3553L243.835 73.3954C251.201 81.9703 262.515 88.902 278.021 88.902C293.528 88.902 300.762 84.0857 300.762 77.7584C300.762 72.6399 296.399 69.0324 281.78 66.6148L267.463 64.1972C243.816 60.2686 229.953 50.9382 229.953 32.4096C229.953 11.7656 249.388 0.0175781 273.942 0.0175781C293.66 0.0175781 309.79 6.94928 320.631 17.3374L303.463 33.5995C295.624 26.6678 286.143 21.096 273.035 21.096C261.589 21.096 253.298 25.1568 253.298 31.1819C253.298 36.4515 259.02 39.9079 272.582 42.3255ZM0.517578 107.773H24.2025L55.5098 2.08737V23.195H109.755V2.04102H55.5098V2.0599L31.8519 2.04102L0.517578 107.773ZM55.5098 45.4043H106.279V66.5583H55.5098V45.4043ZM610.125 109.872C577.353 109.872 556.005 87.9237 556.005 55.0007C556.005 25.6856 576.15 0.128906 609.224 0.128906C642.898 0.128906 659.435 25.385 659.435 51.994C659.435 58.4584 659.134 61.1643 658.984 62.5174H579.307C582.013 79.8057 595.393 88.5251 612.08 88.5251C626.812 88.5251 636.584 81.3091 643.5 71.6877L658.984 87.4727C649.062 99.6498 633.578 109.872 610.125 109.872ZM580.359 43.7257H635.532C634.78 31.699 625.309 21.1756 609.224 21.1756C594.791 21.1756 584.118 29.444 580.359 43.7257ZM449.9 107.617V2.38391H487.333C519.354 2.38391 547.918 13.9596 547.918 54.249C547.918 94.0874 519.806 107.617 487.333 107.617H449.9ZM472.901 86.5707H485.078C507.328 86.5707 524.616 79.9561 524.616 54.249C524.616 30.1956 506.877 23.4306 485.078 23.4306H472.901V86.5707ZM737.88 2.38391L712.774 86.5707H705.859L680.753 2.38391H657.151L688.57 107.617H730.213L761.482 2.38391H737.88Z" fill="white"/>
</svg>
