<svg width="32" height="26" viewBox="0 0 32 26" fill="none" xmlns="http://www.w3.org/2000/svg">
<g id="Subtract" filter="url(#filter0_d_383_2421)">
<path id="Subtract_2" fill-rule="evenodd" clip-rule="evenodd" d="M23.7982 2C24.5173 2 25.1559 2.33552 25.5577 2.85448L13.8876 12.3802L2.32143 3.02746C2.70814 2.41128 3.40564 2 4.20183 2H23.7982ZM2 17.8571V4.71775L10.299 11.4286L2.01711 18.1256C2.00582 18.0376 2 17.948 2 17.8571ZM2.759 19.4759C3.14542 19.8024 3.64991 20 4.20183 20H23.7982C24.2725 20 24.7119 19.854 25.0713 19.6056L16.2526 12.4074L14.6668 13.7019C14.2183 14.068 13.5649 14.0694 13.1147 13.7054L11.5049 12.4037L2.759 19.4759ZM17.4519 11.4286L25.9398 18.3568C25.9792 18.1965 26 18.0292 26 17.8571V4.45122L17.4519 11.4286Z" fill="white"/>
</g>
<defs>
<filter id="filter0_d_383_2421" x="0" y="0" width="32" height="26" filterUnits="userSpaceOnUse" color-interpolation-filters="sRGB">
<feFlood flood-opacity="0" result="BackgroundImageFix"/>
<feColorMatrix in="SourceAlpha" type="matrix" values="0 0 0 0 0 0 0 0 0 0 0 0 0 0 0 0 0 0 127 0" result="hardAlpha"/>
<feOffset dx="2" dy="2"/>
<feGaussianBlur stdDeviation="2"/>
<feComposite in2="hardAlpha" operator="out"/>
<feColorMatrix type="matrix" values="0 0 0 0 0 0 0 0 0 0 0 0 0 0 0 0 0 0 0.25 0"/>
<feBlend mode="normal" in2="BackgroundImageFix" result="effect1_dropShadow_383_2421"/>
<feBlend mode="normal" in="SourceGraphic" in2="effect1_dropShadow_383_2421" result="shape"/>
</filter>
</defs>
</svg>
