<svg width="25" height="25" viewBox="0 0 25 25" fill="none" xmlns="http://www.w3.org/2000/svg">
<path fill-rule="evenodd" clip-rule="evenodd" d="M12.5 6.5C10.2909 6.5 8.5 8.29086 8.5 10.5C8.5 12.7091 10.2909 14.5 12.5 14.5C14.7091 14.5 16.5 12.7091 16.5 10.5C16.5 8.29086 14.7091 6.5 12.5 6.5ZM10.5 10.5C10.5 9.39543 11.3954 8.5 12.5 8.5C13.6046 8.5 14.5 9.39543 14.5 10.5C14.5 11.6046 13.6046 12.5 12.5 12.5C11.3954 12.5 10.5 11.6046 10.5 10.5Z" fill="#10BEC9"></path>
<path fill-rule="evenodd" clip-rule="evenodd" d="M18.8327 15.389C18.128 16.3005 15.4951 19.2151 13.8542 21.0176C13.0613 21.8887 12.5 22.5 12.5 22.5C12.5 22.5 11.9387 21.8887 11.1458 21.0176C9.5049 19.2151 6.87198 16.3005 6.16726 15.389C5.12197 14.0371 4.5 12.3412 4.5 10.5C4.5 6.08172 8.08172 2.5 12.5 2.5C16.9183 2.5 20.5 6.08172 20.5 10.5C20.5 12.3412 19.878 14.0371 18.8327 15.389ZM12.5 4.5C15.8137 4.5 18.5 7.18629 18.5 10.5C18.5 11.883 18.0345 13.1517 17.2505 14.1657C16.7867 14.7656 15.2695 16.4726 13.7899 18.1112C13.3349 18.6151 12.8926 19.1026 12.5 19.5342C12.1074 19.1026 11.6651 18.6151 11.2101 18.1112C9.73054 16.4726 8.2133 14.7656 7.7495 14.1657C6.96548 13.1517 6.5 11.883 6.5 10.5C6.5 7.18629 9.18629 4.5 12.5 4.5Z" fill="#10BEC9"></path>
</svg>
