<svg width="56" height="89" viewBox="0 0 56 89" fill="none" xmlns="http://www.w3.org/2000/svg">
<path d="M43.1933 11.9702C43.2112 11.9702 43.2112 11.988 43.2284 11.988C45.7673 13.1871 47.7596 14.6327 49.3288 16.0783C45.926 5.12934 39.0505 0.316402 27.7668 0V8.90251C33.6077 8.92092 38.9123 9.96102 43.1933 11.9702Z" fill="#FAD749"></path>
<path d="M12.358 11.9702C16.6776 9.94286 21.8606 8.90251 27.7668 8.90251V0C16.4662 0.317284 9.60706 5.13012 6.22266 16.0956C7.77405 14.65 9.76636 13.2044 12.3231 12.0053C12.3225 11.9881 12.3403 11.9703 12.3581 11.9703L12.358 11.9702Z" fill="#1F58B2"></path>
<path d="M42.5602 14.7212C40.6738 17.1014 36.654 22.2144 29.4961 31.6637C32.5109 35.6132 35.7723 39.6678 39.246 43.7932C41.5027 40.9549 42.9833 39.0505 43.6714 38.0986C44.218 37.3226 44.7647 36.6179 45.2935 35.9126C48.3612 31.8573 50.7944 28.6487 50.3886 21.6321C49.0659 19.5513 46.6678 16.8009 42.5604 14.7207L42.5602 14.7212Z" fill="#1F58B2"></path>
<path d="M45.2035 55.7278C42.841 52.6073 40.6194 49.6631 38.257 46.8949C34.1138 42.0114 30.235 37.1978 26.7092 32.5437C19.1282 22.5473 14.9321 17.1878 12.9755 14.7197C8.86729 16.8 6.46987 19.5325 5.14775 21.6134C4.74253 28.6299 7.17508 31.8391 10.2428 35.8938C10.7716 36.5991 11.3182 37.3216 11.8649 38.0798C12.6581 39.1731 14.5096 41.5527 17.3658 45.1321C20.2041 48.6936 24.0829 53.4715 28.8785 59.3597C37.9231 70.4667 46.5089 82.9136 50.0177 88.1145L55.5358 68.6156C51.5507 64.12 48.3244 59.8533 45.2036 55.728L45.2035 55.7278Z" fill="#FAD749"></path>
<path d="M10.3316 55.7281C7.21098 59.8534 4.00241 64.1023 0 68.6335L5.51878 88.1324C8.93892 83.0723 17.208 71.1018 25.9873 60.2056C22.0735 55.3928 18.7943 51.3375 16.2203 48.1289C14.263 50.5436 12.3414 53.0646 10.3314 55.7273L10.3316 55.7281Z" fill="#1F58B2"></path>
</svg>
